<svg width="114" height="139.56" xmlns="http://www.w3.org/2000/svg" data-name="Layer 2">
 <g>
  <title>Layer 1</title>
  <g id="svg_25">
   <path class="cls-2" d="m33.37934,111.4101c0.04769,-0.8966 0.3243,-1.7169 0.8966,-2.40366c0.20984,-0.25753 0.2003,-0.48645 0.11446,-0.74399c-0.41015,-1.16367 -0.79168,-2.34643 -1.27813,-3.49102c-0.25753,-0.61045 -0.96337,-0.80122 -1.4689,-1.19229c-1.30675,-0.99198 -2.6135,-1.98397 -3.86302,-3.04272c-2.15566,-1.82182 -4.13009,-3.8344 -6.07591,-5.86606c-1.69782,-1.78366 -3.34795,-3.61502 -4.92177,-5.50361c-1.57382,-1.88859 -3.09041,-3.81533 -4.54024,-5.7993c-1.77413,-2.42273 -3.35749,-4.979 -4.78823,-7.61157c-1.49752,-2.75657 -2.76611,-5.64668 -3.64364,-8.67033c-0.50553,-1.76459 -0.94429,-3.54825 -1.19229,-5.37961c-0.15261,-1.09691 -0.31476,-2.18427 -0.41015,-3.29072c-0.09538,-0.25753 0.02861,-0.54368 -0.08584,-0.80122c-0.00954,-0.3243 -0.02861,-0.64861 -0.03815,-0.96337c-0.11446,-0.50553 0.05723,-1.03014 -0.09538,-1.52613c0,-1.03968 0,-2.08889 0,-3.12857c0.15261,-0.49599 0,-1.0206 0.08584,-1.51659c0.00954,-0.33384 0.02861,-0.66768 0.03815,-1.00152c0.15261,-0.28615 -0.00954,-0.60091 0.09538,-0.88706c0.00954,-0.20984 0.01908,-0.41015 0.02861,-0.61999c0.13354,-0.2003 0,-0.43876 0.09538,-0.64861c0.00954,-0.16215 0.01908,-0.33384 0.02861,-0.49599c0.13354,-0.2003 0,-0.43876 0.09538,-0.63907c0.36246,-3.16672 1.05875,-6.25713 1.9172,-9.32847c0.82983,-2.95688 1.89812,-5.82791 3.13811,-8.63217c1.81228,-4.11101 4.09194,-7.94542 6.84851,-11.49367c2.31781,-2.97595 5.14115,-5.37007 8.43187,-7.21097c2.59442,-1.44982 5.34146,-2.54673 8.12664,-3.56733c2.09843,-0.7726 4.18732,-1.5929 6.36206,-2.14612c3.56733,-0.90614 6.85805,-0.09538 10.00569,1.58336c1.45936,0.78214 2.72796,1.81228 3.96794,2.89011c0.95383,0.8203 2.06028,1.37352 3.15718,1.95535c0.20984,0.22892 0.10492,0.51507 0.10492,0.7726c0,31.54321 0,63.09595 0,94.63915c0,0.26707 -0.07631,0.54368 0.06677,0.80122c1.42121,0.14307 2.85196,0.01908 4.27316,0.06677c0.21938,0 0.30523,-0.07631 0.28615,-0.29569c-0.00954,-0.124 0,-0.248 0,-0.38153c0,-33.57487 0,-67.14019 0,-100.71506c0,-0.19077 0,-0.38153 -0.00954,-0.56276c0.27661,-0.18123 0.58184,-0.07631 0.86799,-0.05723l2.38458,0.02861c0.54368,0.15261 1.10644,-0.01908 1.65967,0.09538c0.3243,0.00954 0.65814,0.01908 0.98245,0.02861c0.248,0.124 0.52461,0 0.78214,0.08584c9.81493,1.01106 18.73325,4.32086 26.57374,10.37769c8.26018,6.38113 13.83056,14.66039 17.07358,24.52301c2.34643,7.1442 3.08088,14.46962 2.18427,21.93812c-1.33536,11.1026 -5.78976,20.77445 -13.35364,28.99648c-2.07935,2.26058 -4.19686,4.49255 -6.11406,6.8962c-2.57534,3.23349 -4.44485,6.80082 -5.13161,10.93091c-0.03815,0.20984 -0.00954,0.39107 0.13354,0.58184c0.76307,1.03014 1.05875,2.20335 0.98245,3.47195c-0.05723,0.93475 0.07631,1.87905 -0.10492,2.82334c-0.28615,1.47844 -1.05875,2.60396 -2.2892,3.41472c-0.29569,0.19077 -0.35292,0.33384 -0.20984,0.67722c0.62953,1.58336 0.47692,3.23349 0.38153,4.88362c-0.06677,1.17321 -0.51507,2.19381 -1.28767,3.09995c-1.0206,1.20183 -2.33689,1.87905 -3.87256,1.93628c-2.25104,0.08584 -4.50208,0.04769 -6.74359,0.00954c-0.58184,-0.00954 -0.72491,0.17169 -0.65814,0.6963c0.03815,0.31476 0.01908,0.62953 0.01908,0.94429c-0.13354,0.2003 0,0.43876 -0.09538,0.64861c-0.29569,1.03968 -0.66768,2.02212 -1.40213,2.86149c-1.07783,1.24952 -2.45135,1.99351 -4.04425,2.01258c-4.87408,0.07631 -9.74816,0.07631 -14.6127,0c-1.00152,-0.01908 -1.98397,-0.48645 -2.79473,-1.15414c-1.13506,-0.92522 -1.85043,-2.09843 -2.1652,-3.53871c-0.14307,-0.66768 -0.09538,-1.32583 -0.09538,-1.98397c0,-0.38153 -0.09538,-0.48645 -0.48645,-0.48645c-2.39412,0.00954 -4.78823,0.02861 -7.18235,-0.02861c-1.37352,-0.02861 -2.47042,-0.70584 -3.43379,-1.65013c-1.20183,-1.16367 -1.57382,-2.60396 -1.52613,-4.2064c0.03815,-1.39259 -0.15261,-2.80426 0.40061,-4.13963c0.21938,-0.53415 -0.3243,-0.59138 -0.50553,-0.72491c-1.24952,-0.90614 -1.87905,-2.12704 -2.06028,-3.61502c-0.05723,-1.17321 -0.05723,-2.35596 0,-3.52918l-0.00954,0z" stroke-width="0px" fill="#171819" id="svg_26"/>
   <path class="cls-4" d="m63.20564,57.71893c0,-16.06252 0,-32.13458 0,-48.1971c0,-0.43876 -0.01908,-0.73445 0.60091,-0.68676c7.4685,0.51507 14.51731,2.46089 20.99383,6.25713c9.89123,5.7993 16.57759,14.2407 20.39292,24.99992c1.99351,5.61807 2.88057,11.43644 2.60396,17.39789c-0.55322,11.81797 -4.88362,22.06212 -12.98165,30.71337c-2.64211,2.82334 -5.28423,5.64668 -7.47804,8.85156c-1.90766,2.77565 -3.35749,5.76114 -4.10148,9.07094c-0.05723,0.26707 -0.09538,0.47692 -0.50553,0.47692c-6.2476,-0.01908 -12.49519,-0.02861 -18.73325,-0.00954c-0.61999,0 -0.81076,-0.124 -0.80122,-0.78214c0.01908,-16.02437 0.01908,-32.04874 0.01908,-48.0731l-0.00954,-0.01908z" stroke-width="0px" fill="#f5ad18" id="svg_27"/>
   <path class="cls-3" d="m14.7987,21.4161c0.76307,-1.2209 1.62151,-2.30827 2.49904,-3.36702c3.07134,-3.70087 7.0202,-6.14267 11.39829,-7.96449c1.23998,-0.51507 2.49904,-0.98245 3.73902,-1.48798c0.28615,-0.11446 0.49599,-0.10492 0.72491,0.124c0.41969,0.41015 0.86799,0.79168 1.30675,1.18275c0.36246,0.31476 0.33384,0.5723 -0.08584,0.82983c-2.54673,1.5929 -3.92979,3.94886 -4.44485,6.85805c-0.16215,0.90614 -0.22892,1.83136 -0.124,2.75657c0.10492,0.99198 0.66768,1.5929 1.47844,1.56428c0.8203,-0.02861 1.44029,-0.68676 1.47844,-1.65967c0.03815,-0.8203 0.04769,-1.63105 0.20984,-2.44181c0.27661,-1.33536 0.85845,-2.47996 1.84089,-3.44333c0.83937,-0.82983 1.68828,-1.64059 2.69934,-2.26058c0.47692,-0.29569 0.94429,-0.46738 1.53567,-0.21938c0.46738,0.2003 0.99198,0.16215 1.44982,-0.124c0.61999,-0.40061 0.73445,-1.16367 0.25753,-1.87905c-0.38153,-0.58184 -0.95383,-0.93475 -1.57382,-1.21137c-0.66768,-0.30523 -1.3449,-0.59138 -2.01258,-0.8966c-0.2003,-0.09538 -0.50553,-0.17169 -0.50553,-0.41969c0,-0.30523 0.34338,-0.33384 0.56276,-0.41015c2.4895,-0.81076 4.92177,-0.61045 7.30635,0.43876c2.39412,1.04921 4.35901,2.66119 6.10452,4.57839c0.248,0.26707 0.23846,0.56276 0.23846,0.87752c0,7.84049 0,15.69053 0,23.53102l0,0.41015c-0.25753,-0.124 -0.23846,-0.38153 -0.29569,-0.5723c-0.95383,-3.03318 -1.61198,-6.1236 -2.1652,-9.25216c-0.08584,-0.48645 -0.21938,-0.94429 -0.53415,-1.32583c-0.74399,-0.86799 -1.84089,-0.67722 -2.23197,0.39107c-0.248,0.66768 -0.2003,1.36398 -0.08584,2.06028c0.2003,1.16367 0.40061,2.31781 0.52461,3.49102c0.14307,1.37352 -0.02861,1.65013 -1.31629,2.03166c-1.7932,0.52461 -2.85196,1.87905 -3.69133,3.41472c-0.97291,1.75505 -1.19229,3.65317 -0.85845,5.61807c0.17169,1.03014 0.76307,1.58336 1.52613,1.54521c0.76307,-0.03815 1.36398,-0.8203 1.39259,-1.82182c0.02861,-0.8203 -0.07631,-1.63105 0.09538,-2.45135c0.27661,-1.30675 0.98245,-2.3655 1.95535,-3.23349c0.74399,-0.66768 1.3449,-0.59138 2.02212,0.14307c0.52461,0.56276 0.86799,1.23998 1.19229,1.9172c0.81076,1.70736 1.47844,3.47195 2.3655,5.14115c0.07631,0.14307 0.11446,0.3243 0.11446,0.47692c0,1.50705 0,3.01411 0,4.5307c-0.23846,-0.04769 -0.20984,-0.25753 -0.29569,-0.39107c-0.13354,-0.20984 -0.21938,-0.45784 -0.35292,-0.66768c-0.55322,-0.82983 -1.40213,-1.2209 -2.06981,-0.94429c-0.65814,0.26707 -0.90614,1.0206 -0.63907,2.08889c0.15261,0.61045 0.40061,1.19229 0.56276,1.80274c0.36246,1.38306 -0.18123,2.07935 -1.61198,2.02212c-1.62151,-0.06677 -3.16672,-0.41015 -4.41624,-1.56428c-0.39107,-0.36246 -0.85845,-0.60091 -1.38306,-0.71537c-0.52461,-0.11446 -1.0206,-0.06677 -1.39259,0.36246c-0.37199,0.43876 -0.29569,0.94429 -0.08584,1.43075c0.21938,0.51507 0.58184,0.91568 0.98245,1.29721c1.70736,1.55475 3.7581,2.13658 6.00914,2.19381c1.03968,0.02861 2.05074,-0.16215 3.07134,-0.27661c1.24952,-0.14307 1.60244,0.19077 1.60244,1.42121c0,5.61807 0,11.2266 0,16.84466l0,0.86799c-0.38153,-0.42922 -0.66768,-0.73445 -0.92522,-1.05875c-1.21137,-1.51659 -1.98397,-3.27164 -2.52765,-5.103c-1.01106,-3.43379 -2.84242,-6.3239 -5.43684,-8.78479c-2.11751,-2.01258 -4.19686,-4.07286 -5.89468,-6.46698c-0.8203,-1.15414 -1.51659,-2.37504 -1.90766,-3.73902c-0.51507,-1.77413 -0.29569,-3.45287 0.74399,-4.99808c0.39107,-0.58184 0.59138,-1.20183 0.38153,-1.90766c-0.30523,-0.98245 -1.23998,-1.30675 -2.08889,-0.71537c-0.4483,0.30523 -0.72491,0.76307 -1.03968,1.17321c-1.4689,1.90766 -2.10797,2.08889 -4.36855,1.30675c-1.35444,-0.46738 -2.56581,-1.13506 -3.55779,-2.18427c-0.29569,-0.31476 -0.66768,-0.50553 -1.08737,-0.60091c-0.63907,-0.16215 -1.35444,0.09538 -1.67874,0.60091c-0.37199,0.58184 -0.21938,1.1446 0.17169,1.64059c0.5723,0.73445 1.2686,1.3449 2.02212,1.88859c1.00152,0.72491 2.14612,1.1446 3.25257,1.64059c2.65165,1.16367 4.69285,2.94734 5.9996,5.57991c1.58336,3.19534 3.79625,5.93283 6.33344,8.42233c0.61045,0.60091 1.21137,1.2209 1.81228,1.84089c1.61198,1.65013 2.62304,3.6341 3.29072,5.80883c1.16367,3.80579 3.02365,7.15374 6.27621,9.57647c0.22892,0.17169 0.22892,0.37199 0.22892,0.61045c0,3.31933 0,6.64821 0,9.96754c0,0.41015 -0.08584,0.54368 -0.47692,0.34338c-0.09538,-0.04769 -0.2003,-0.10492 -0.29569,-0.09538c-1.04921,0.11446 -1.2209,-0.62953 -1.40213,-1.39259c-0.23846,-1.0206 -0.41969,-2.06028 -0.80122,-3.04272c-0.19077,-0.49599 -0.42922,-0.96337 -0.79168,-1.3449c-0.68676,-0.73445 -1.51659,-0.56276 -1.85043,0.39107c-0.27661,0.80122 -0.22892,1.62151 -0.05723,2.42273c0.27661,1.31629 0.58184,2.62304 0.62953,3.97748c0.13354,4.02517 -1.45936,5.78022 -4.24455,6.78174c-5.00762,1.7932 -9.84354,1.24952 -14.37424,-1.54521c-1.54521,-0.95383 -2.68027,-2.41319 -3.92979,-3.71994c-2.55627,-2.68027 -5.09346,-5.37007 -7.2682,-8.37464c-0.37199,-0.51507 -0.70584,-1.03968 -0.96337,-1.62151c-0.3243,-0.75353 -0.25753,-0.95383 0.50553,-1.21137c1.51659,-0.51507 3.09041,-0.61045 4.66424,-0.54368c5.34146,0.23846 10.43492,1.62151 15.42345,3.44333c0.79168,0.28615 1.55475,0.62953 2.32735,0.95383c0.67722,0.27661 1.37352,0.40061 2.08889,0.13354c0.91568,-0.34338 1.1446,-1.21137 0.54368,-1.97443c-0.39107,-0.49599 -0.93475,-0.7726 -1.48798,-1.03014c-0.51507,-0.23846 -1.0206,-0.50553 -1.44029,-0.88706c-0.56276,-0.51507 -0.64861,-1.09691 -0.15261,-1.66921c1.09691,-1.2686 2.39412,-2.22243 4.13963,-2.40366c0.62953,-0.06677 1.25906,-0.09538 1.83136,-0.40061c0.53415,-0.28615 0.96337,-0.67722 0.93475,-1.30675c-0.02861,-0.67722 -0.51507,-1.04921 -1.13506,-1.19229c-1.97443,-0.43876 -3.79625,0.02861 -5.46545,1.08737c-1.31629,0.82983 -2.59442,1.7169 -3.88209,2.58488c-0.33384,0.21938 -0.68676,0.41015 -0.99198,0.66768c-1.09691,0.90614 -2.15566,1.03968 -3.51964,0.38153c-1.88859,-0.91568 -4.00609,-1.05875 -6.07591,-1.23044c-2.53719,-0.20984 -5.07438,-0.36246 -7.5925,0.2003c-0.5723,0.124 -1.15414,0.25753 -1.68828,0.50553c-0.88706,0.41015 -1.44982,0.26707 -2.2415,-0.52461c-0.47692,-0.47692 -0.82983,-1.05875 -1.15414,-1.64059c-0.68676,-1.23044 -1.23044,-2.52765 -1.7932,-3.81533c-0.29569,-0.67722 -0.16215,-0.8966 0.54368,-0.95383c3.93932,-0.31476 7.86911,-0.61999 11.82751,-0.59138c2.46089,0.01908 4.82639,0.61999 7.2205,1.01106c1.49752,0.248 3.00457,0.42922 4.50208,0.08584c1.90766,-0.43876 3.04272,-1.78366 3.15718,-3.73902c0.17169,-2.9378 -0.65814,-5.69437 -1.67874,-8.39372c-0.10492,-0.26707 -0.30523,-0.50553 -0.48645,-0.73445c-0.36246,-0.43876 -0.82983,-0.68676 -1.39259,-0.48645c-0.56276,0.2003 -0.72491,0.70584 -0.76307,1.2686c-0.04769,0.65814 0.21938,1.23044 0.42922,1.82182c0.124,0.36246 0.48645,0.87752 0.18123,1.09691c-0.34338,0.25753 -0.73445,-0.22892 -1.05875,-0.46738c-0.51507,-0.38153 -0.88706,-0.88706 -1.18275,-1.44982c-0.36246,-0.6963 -0.81076,-1.32583 -1.44982,-1.80274c-0.43876,-0.3243 -0.93475,-0.53415 -1.45936,-0.248c-0.51507,0.28615 -0.5723,0.8203 -0.50553,1.33536c0.26707,1.99351 1.37352,3.48148 2.89011,4.70239c0.82983,0.66768 1.72643,1.27813 2.46089,2.06028c0.36246,0.38153 0.94429,0.78214 0.67722,1.37352c-0.23846,0.53415 -0.8966,0.47692 -1.41167,0.47692c-2.0412,0.02861 -4.05378,-0.30523 -6.07591,-0.60091c-3.09041,-0.4483 -6.1999,-0.41969 -9.30939,-0.30523c-2.01258,0.07631 -4.02517,0.21938 -6.03775,0.40061c-0.35292,0.02861 -0.71537,0.02861 -1.06829,0c-1.39259,-0.08584 -2.31781,-0.7726 -2.72796,-2.12704c-0.41015,-1.39259 -0.59138,-2.83288 -0.8203,-4.26363c-0.06677,-0.43876 0.09538,-0.66768 0.56276,-0.50553c3.98702,1.42121 7.95495,0.83937 11.91335,-0.124c0.93475,-0.22892 1.85997,-0.51507 2.78519,-0.79168c0.50553,-0.15261 0.96337,-0.41969 1.27813,-0.86799c0.55322,-0.78214 0.22892,-1.72643 -0.67722,-2.02212c-0.59138,-0.19077 -1.15414,-0.06677 -1.72643,0.09538c-1.30675,0.37199 -2.6135,0.80122 -3.99655,0.79168c-1.23044,-0.01908 -2.12704,-0.55322 -2.68027,-1.65967c-0.66768,-1.3449 -0.8203,-2.8138 -1.0206,-4.26363c-0.28615,-2.09843 0.07631,-4.09194 0.85845,-6.03775c0.29569,-0.74399 0.48645,-1.52613 0.29569,-2.33689c-0.21938,-0.94429 -0.96337,-1.24952 -1.75505,-0.70584c-0.63907,0.42922 -1.01106,1.06829 -1.28767,1.75505c-1.4689,3.65317 -1.84089,7.30635 -0.01908,10.9786c0.30523,0.61999 0.59138,1.25906 0.72491,1.94582c0.11446,0.5723 -0.11446,0.87752 -0.6963,0.96337c-2.98549,0.43876 -5.45592,-1.65967 -5.45592,-4.6547c0,-2.22243 0.56276,-4.36855 0.97291,-6.53375c0.53415,-2.80426 1.29721,-5.56084 1.73597,-8.38418c0.21938,-1.38306 0.52461,-1.48798 1.73597,-0.80122c0.34338,0.2003 0.68676,0.40061 1.03014,0.61045c0.8966,0.55322 1.85997,0.71537 2.89965,0.50553c0.98245,-0.19077 1.28767,0.02861 1.49752,1.01106c0.27661,1.29721 0.15261,2.64211 0.37199,3.94886c0.47692,2.92826 1.5929,5.43684 4.35901,6.91528c1.25906,0.67722 2.63257,0.98245 4.05378,1.03968c0.95383,0.03815 1.51659,-0.46738 1.58336,-1.32583c0.06677,-0.91568 -0.46738,-1.55475 -1.41167,-1.67874c-0.43876,-0.05723 -0.87752,-0.09538 -1.30675,-0.18123c-2.34643,-0.47692 -3.57687,-2.05074 -4.10148,-4.26363c-0.40061,-1.66921 -0.42922,-3.37656 -0.25753,-5.07438c0.09538,-0.95383 0.60091,-1.63105 1.52613,-1.97443c0.99198,-0.36246 2.03166,-0.53415 3.05226,-0.74399c0.88706,-0.18123 1.76459,-0.41015 2.49904,-0.97291c0.41015,-0.31476 0.79168,-0.6963 0.67722,-1.25906c-0.124,-0.60091 -0.63907,-0.80122 -1.16367,-0.91568c-1.36398,-0.27661 -2.67073,0.07631 -3.9584,0.45784c-1.75505,0.50553 -3.40518,1.31629 -5.227,1.62151c-1.00152,0.16215 -1.99351,0.26707 -3.00457,0.07631c-1.72643,-0.33384 -2.6135,-1.49752 -2.40366,-3.25257c0.21938,-1.9172 1.20183,-3.55779 1.86951,-5.32238c0.50553,-1.32583 1.40213,-2.26058 2.50858,-3.0618c1.68828,-1.21137 3.50056,-1.44982 5.4273,-0.67722c2.11751,0.85845 3.7581,2.3655 5.27469,4.00609c2.31781,2.4895 4.19686,5.29376 5.96145,8.19341c0.35292,0.58184 0.76307,1.11598 1.43075,1.36398c0.94429,0.36246 1.7169,-0.16215 1.72643,-1.16367c0,-0.61999 -0.20984,-1.19229 -0.51507,-1.72643c-0.99198,-1.74551 -0.83937,-2.94734 0.60091,-4.33993c1.54521,-1.48798 3.30026,-2.58488 5.52268,-2.75657c0.47692,-0.03815 0.94429,-0.17169 1.36398,-0.43876c0.64861,-0.41015 0.96337,-0.96337 0.80122,-1.56428c-0.18123,-0.64861 -0.71537,-0.90614 -1.32583,-1.00152c-0.86799,-0.13354 -1.7169,0.00954 -2.56581,0.19077c-2.35596,0.51507 -4.24455,1.85997 -6.04729,3.36702c-0.41969,0.35292 -0.81076,0.73445 -1.20183,1.11598c-0.30523,0.29569 -0.54368,0.35292 -0.79168,-0.05723c-1.37352,-2.20335 -3.25257,-3.94886 -5.1793,-5.64668c-2.4895,-2.19381 -5.37961,-2.66119 -8.54633,-2.06028c-0.36246,0.06677 -0.71537,0.22892 -1.16367,0.17169l0.03815,-0.09538z" stroke-width="0px" fill="#cccbcb" id="svg_28"/>
   <path class="cls-3" d="m60.79245,115.80726c-6.98205,0 -13.96409,0 -20.9366,0c-1.51659,0 -2.01258,-0.49599 -2.01258,-1.98397c0,-0.5723 0,-1.13506 0,-1.70736c0.01908,-0.8203 0.43876,-1.33536 1.24952,-1.49752c0.248,-0.04769 0.49599,-0.06677 0.75353,-0.06677c13.93548,0 27.88049,0 41.81597,0c1.55475,0 2.03166,0.47692 2.03166,2.03166c0,0.50553 0,1.01106 0,1.51659c0,1.12552 -0.5723,1.70736 -1.70736,1.7169c-2.37504,0.00954 -4.75008,0 -7.12512,0l-14.06901,0l0,-0.00954z" stroke-width="0px" fill="#cccbcb" id="svg_29"/>
   <path class="cls-3" d="m60.79245,125.26927c-6.45744,0 -12.90534,0 -19.36278,0c-1.2686,0 -1.73597,-0.46738 -1.73597,-1.75505c0,-0.67722 0,-1.3449 0,-2.02212c0.00954,-0.85845 0.49599,-1.36398 1.3449,-1.44029c0.19077,-0.01908 0.38153,0 0.56276,0c12.78134,0 25.56268,0 38.34402,0c1.47844,0 1.89812,0.42922 1.89812,1.9172c0,0.52461 0,1.04921 0,1.57382c0,1.23044 -0.49599,1.72643 -1.70736,1.72643c-6.45744,0 -12.90534,0 -19.36278,0l0.01908,0z" stroke-width="0px" fill="#cccbcb" id="svg_30"/>
   <path class="cls-3" d="m50.88214,99.38228c0,1.83136 0,3.65317 0,5.48453c0,0.39107 -0.06677,0.56276 -0.51507,0.65814c-3.99655,0.85845 -7.80234,0.23846 -11.48413,-1.37352c-1.57382,-0.68676 -3.14764,-1.40213 -4.61654,-2.2892c-0.29569,-0.18123 -0.7726,-0.36246 -0.68676,-0.72491c0.08584,-0.35292 0.59138,-0.30523 0.93475,-0.33384c2.23197,-0.19077 4.49255,-0.17169 6.70543,-0.61999c2.57534,-0.52461 4.83593,-1.53567 6.1999,-3.96794c0.46738,-0.82983 0.74399,-1.72643 1.07783,-2.6135c0.10492,-0.29569 0.248,-0.5723 0.39107,-0.85845c0.11446,-0.22892 0.3243,-0.30523 0.58184,-0.29569c0.64861,0.04769 1.42121,0.84891 1.42121,1.49752c0,1.80274 0,3.61502 0,5.41776l-0.00954,0.01908z" stroke-width="0px" fill="#cccbcb" id="svg_31"/>
   <path class="cls-4" d="m60.79245,129.12275c2.65165,0 5.29376,0.00954 7.94542,-0.00954c0.50553,0 0.68676,0.14307 0.61999,0.63907c-0.04769,0.35292 0,0.71537 -0.05723,1.06829c-0.15261,0.98245 -0.85845,1.63105 -1.85043,1.63105c-4.43532,0.01908 -8.86109,0.01908 -13.29641,0c-1.09691,0 -1.88859,-0.82983 -1.93628,-1.92674q-0.06677,-1.40213 1.33536,-1.40213c2.41319,0 4.83593,0 7.24912,0l-0.00954,0z" stroke-width="0px" fill="#f5ad18" id="svg_32"/>
   <path class="cls-1" d="m103.81979,54.31375c0,0.20984 0.00954,0.37199 0,0.54368c-0.05723,0.81076 -0.59138,1.38306 -1.32583,1.42121c-0.73445,0.03815 -1.33536,-0.40061 -1.44982,-1.20183c-0.2003,-1.32583 -0.28615,-2.67073 -0.48645,-3.99655c-1.12552,-7.62111 -4.05378,-14.47916 -8.7371,-20.58368c-1.68828,-2.20335 -3.57687,-4.24455 -5.65622,-6.08544c-0.37199,-0.3243 -0.68676,-0.68676 -0.8203,-1.16367c-0.13354,-0.46738 -0.10492,-0.92522 0.23846,-1.29721c0.35292,-0.37199 0.79168,-0.4483 1.27813,-0.3243c0.50553,0.124 0.92522,0.39107 1.30675,0.73445c5.98052,5.32238 10.2823,11.77028 13.00072,19.28647c1.48798,4.11101 2.35596,8.35556 2.66119,12.67642l-0.00954,-0.00954z" fill="#fefefe" stroke-width="0px" id="svg_33"/>
  </g>
 </g>

</svg>