<svg xmlns="http://www.w3.org/2000/svg"  viewBox="0 0 100 100" width="200px" height="200px" baseProfile="basic"><path fill="#c7ede6" d="M88.704,55.677c0.3-0.616,0.566-1.264,0.796-1.943c2.633-7.77-1.349-17.078-9.733-19.325	C78.86,23.026,70.86,15.216,61.826,13.884c-10.341-1.525-19.814,5.044-22.966,15.485c-3.799-1.346-7.501-1.182-10.99,0.857	c-1.583,0.732-3.031,1.812-4.33,3.233c-1.907,2.086-3.147,4.719-3.652,7.495c-0.748,0.118-1.483,0.236-2.176,0.484	c-4.04,1.449-6.589,4.431-7.288,8.923c-0.435,2.797,0.443,5.587,0.933,6.714c1.935,4.455,6.422,6.98,10.981,6.312	c0.227-0.033,0.557,0.069,0.752,0.233c0.241,7.12,3.698,13.417,8.884,17.014c8.321,5.772,19.027,3.994,25.781-3.921	c2.894,2.96,6.338,4.398,10.384,3.876c4.023-0.519,7.147-2.739,9.426-6.349c1.053,0.283,2.051,0.691,3.083,0.804	c4.042,0.442,7.324-1.165,9.732-4.8c0.922-1.391,1.793-3.194,1.793-6.354C92.174,60.634,90.88,57.667,88.704,55.677z"/><path fill="#fff" d="M18.369,47.713H8.338c-0.276,0-0.5-0.224-0.5-0.5s0.224-0.5,0.5-0.5h10.031	c0.276,0,0.5,0.224,0.5,0.5S18.645,47.713,18.369,47.713z M21.249,47.713h-1.446c-0.276,0-0.5-0.224-0.5-0.5s0.224-0.5,0.5-0.5	h1.446c0.276,0,0.5,0.224,0.5,0.5S21.526,47.713,21.249,47.713z M25.304,47.713h-2.546c-0.276,0-0.5-0.224-0.5-0.5	s0.224-0.5,0.5-0.5h2.546c0.276,0,0.5,0.224,0.5,0.5S25.58,47.713,25.304,47.713z M25.304,49.578h-9.616c-0.276,0-0.5-0.224-0.5-0.5	s0.224-0.5,0.5-0.5h9.616c0.276,0,0.5,0.224,0.5,0.5S25.58,49.578,25.304,49.578z M13.956,49.578h-0.58c-0.276,0-0.5-0.224-0.5-0.5	s0.224-0.5,0.5-0.5h0.58c0.276,0,0.5,0.224,0.5,0.5S14.233,49.578,13.956,49.578z M11.58,49.578h-1.457c-0.276,0-0.5-0.224-0.5-0.5	s0.224-0.5,0.5-0.5h1.457c0.276,0,0.5,0.224,0.5,0.5S11.856,49.578,11.58,49.578z M20.715,45.848h-5.027c-0.276,0-0.5-0.224-0.5-0.5	s0.224-0.5,0.5-0.5h5.027c0.276,0,0.5,0.224,0.5,0.5S20.992,45.848,20.715,45.848z M20.715,43.983h-1.257	c-0.276,0-0.5-0.224-0.5-0.5s0.224-0.5,0.5-0.5h1.257c0.276,0,0.5,0.224,0.5,0.5S20.992,43.983,20.715,43.983z M17.447,51.443	h-1.759c-0.276,0-0.5-0.224-0.5-0.5s0.224-0.5,0.5-0.5h1.759c0.276,0,0.5,0.224,0.5,0.5S17.723,51.443,17.447,51.443z M71.546,21.436h-10.03c-0.276,0-0.5-0.224-0.5-0.5s0.224-0.5,0.5-0.5h10.03c0.276,0,0.5,0.224,0.5,0.5S71.823,21.436,71.546,21.436	z M74.428,21.436h-1.446c-0.276,0-0.5-0.224-0.5-0.5s0.224-0.5,0.5-0.5h1.446c0.276,0,0.5,0.224,0.5,0.5	S74.704,21.436,74.428,21.436z M78.482,21.436h-2.546c-0.276,0-0.5-0.224-0.5-0.5s0.224-0.5,0.5-0.5h2.546	c0.276,0,0.5,0.224,0.5,0.5S78.758,21.436,78.482,21.436z M76.456,17.706H66.84c-0.276,0-0.5-0.224-0.5-0.5s0.224-0.5,0.5-0.5h9.617	c0.276,0,0.5,0.224,0.5,0.5S76.733,17.706,76.456,17.706z M65.108,17.706h-0.58c-0.276,0-0.5-0.224-0.5-0.5s0.224-0.5,0.5-0.5h0.58	c0.276,0,0.5,0.224,0.5,0.5S65.385,17.706,65.108,17.706z M62.731,17.706h-1.456c-0.276,0-0.5-0.224-0.5-0.5s0.224-0.5,0.5-0.5	h1.456c0.276,0,0.5,0.224,0.5,0.5S63.008,17.706,62.731,17.706z M73.893,19.571h-5.027c-0.276,0-0.5-0.224-0.5-0.5	s0.224-0.5,0.5-0.5h5.027c0.276,0,0.5,0.224,0.5,0.5S74.169,19.571,73.893,19.571z M73.893,17.706h-1.257	c-0.276,0-0.5-0.224-0.5-0.5s0.224-0.5,0.5-0.5h1.257c0.276,0,0.5,0.224,0.5,0.5S74.169,17.706,73.893,17.706z M67.411,19.571	h-1.759c-0.276,0-0.5-0.224-0.5-0.5s0.224-0.5,0.5-0.5h1.759c0.276,0,0.5,0.224,0.5,0.5S67.687,19.571,67.411,19.571z"/><path fill="#fdfcef" d="M73.281,59.625c0,0,10.309,0,10.371,0c2.381,0,4.31-1.93,4.31-4.311c0-2.077-1.469-3.81-3.425-4.219 c0.023-0.182,0.038-0.366,0.038-0.554c0-2.466-1.999-4.465-4.464-4.465c-1.456,0-2.745,0.7-3.56,1.778 c-0.208-2.745-2.66-4.862-5.528-4.511c-2.097,0.257-3.832,1.878-4.218,3.955c-0.124,0.666-0.111,1.313,0.012,1.92 c-0.562-0.606-1.363-0.987-2.254-0.987c-1.632,0-2.963,1.27-3.069,2.875c-0.741-0.164-1.547-0.153-2.396,0.165 c-1.622,0.609-2.778,2.137-2.845,3.868c-0.096,2.459,1.869,4.483,4.307,4.483c0.185,0,0.836,0,0.986,0h8.951"/><path fill="#472b29" d="M83.65,60.125h-8.4c-0.276,0-0.5-0.224-0.5-0.5s0.224-0.5,0.5-0.5h8.4 c2.102,0,3.811-1.709,3.811-3.811c0-1.794-1.273-3.363-3.027-3.729c-0.254-0.053-0.426-0.292-0.394-0.55 c0.02-0.162,0.034-0.326,0.034-0.493c0-2.186-1.778-3.965-3.965-3.965c-1.249,0-2.401,0.576-3.161,1.58 c-0.125,0.166-0.342,0.237-0.539,0.178c-0.2-0.059-0.342-0.234-0.358-0.442c-0.091-1.198-0.677-2.324-1.609-3.088 c-0.941-0.771-2.132-1.115-3.359-0.965c-1.884,0.23-3.441,1.69-3.787,3.55c-0.107,0.581-0.104,1.163,0.011,1.729 c0.044,0.22-0.062,0.442-0.262,0.544c-0.197,0.103-0.442,0.061-0.595-0.105c-0.495-0.533-1.165-0.827-1.888-0.827 c-1.353,0-2.481,1.058-2.569,2.408c-0.01,0.146-0.082,0.279-0.198,0.367c-0.118,0.087-0.271,0.118-0.408,0.088 c-0.731-0.162-1.423-0.115-2.112,0.146c-1.45,0.544-2.464,1.918-2.521,3.419c-0.041,1.048,0.336,2.041,1.061,2.795 c0.726,0.754,1.7,1.169,2.746,1.169h9.938c0.276,0,0.5,0.224,0.5,0.5s-0.224,0.5-0.5,0.5h-9.938c-1.32,0-2.551-0.524-3.467-1.476 c-0.915-0.952-1.391-2.204-1.34-3.527c0.074-1.898,1.348-3.633,3.17-4.317c0.697-0.262,1.42-0.352,2.149-0.273 c0.357-1.607,1.798-2.8,3.49-2.8c0.58,0,1.148,0.144,1.656,0.41c0.005-0.311,0.036-0.623,0.095-0.934 c0.424-2.285,2.336-4.078,4.648-4.36c1.501-0.185,2.96,0.237,4.114,1.184c0.87,0.713,1.494,1.683,1.792,2.754 c0.894-0.777,2.031-1.208,3.242-1.208c2.737,0,4.965,2.227,4.965,4.965c0,0.059-0.001,0.118-0.004,0.176 c1.989,0.615,3.391,2.481,3.391,4.597C88.461,57.967,86.303,60.125,83.65,60.125z"/><path fill="#fdfcef" d="M85.396,51.6c-1.498-0.706-3.231-0.206-3.87,1.117c-0.079,0.164-0.138,0.334-0.177,0.506"/><path fill="#472b29" d="M81.349,53.473c-0.019,0-0.037-0.002-0.056-0.006c-0.135-0.03-0.219-0.165-0.188-0.299 c0.044-0.193,0.109-0.381,0.195-0.559c0.698-1.443,2.584-1.998,4.202-1.235c0.125,0.059,0.179,0.208,0.12,0.333 c-0.059,0.126-0.21,0.177-0.333,0.12c-1.372-0.646-2.96-0.198-3.539,1c-0.069,0.144-0.122,0.296-0.157,0.452 C81.566,53.394,81.463,53.473,81.349,53.473z"/><g><path fill="#fdfcef" d="M40.997,72.904c1.883,0,3.517,0,3.54,0c2.11,0,3.821-1.674,3.821-3.739 c0-1.802-1.302-3.305-3.035-3.66c0.02-0.158,0.034-0.317,0.034-0.48c0-2.139-1.772-3.873-3.957-3.873 c-1.29,0-2.433,0.607-3.155,1.543c-0.185-2.381-2.358-4.218-4.9-3.913c-1.859,0.223-3.397,1.629-3.739,3.431 c-0.11,0.578-0.098,1.139,0.011,1.665c-0.498-0.525-1.208-0.856-1.998-0.856c-1.446,0-2.627,1.102-2.72,2.494 c-0.657-0.142-1.371-0.133-2.123,0.143c-1.438,0.528-2.462,1.853-2.522,3.356c-0.085,2.133,1.657,3.889,3.818,3.889 c0.164,0,0.741,0,0.874,0h7.934 M34.52,72.904h0.36"/><path fill="#472b29" d="M44.537,73.404h-3.541c-0.276,0-0.5-0.224-0.5-0.5s0.224-0.5,0.5-0.5h3.541 c1.831,0,3.32-1.453,3.32-3.24c0-1.524-1.108-2.857-2.635-3.169c-0.256-0.052-0.429-0.293-0.396-0.553 c0.018-0.137,0.03-0.276,0.03-0.417c0-1.86-1.551-3.373-3.457-3.373c-1.092,0-2.098,0.491-2.76,1.348 c-0.126,0.164-0.34,0.233-0.539,0.173c-0.198-0.059-0.339-0.234-0.355-0.44c-0.079-1.019-0.565-1.943-1.369-2.603 c-0.828-0.68-1.884-0.982-2.973-0.852c-1.646,0.197-3.006,1.442-3.307,3.028c-0.094,0.494-0.09,0.989,0.01,1.47 c0.045,0.219-0.06,0.441-0.258,0.544c-0.198,0.104-0.44,0.064-0.595-0.099c-0.428-0.452-1.009-0.7-1.635-0.7 c-1.169,0-2.145,0.891-2.221,2.028c-0.01,0.145-0.082,0.279-0.198,0.366c-0.116,0.088-0.263,0.12-0.407,0.089 c-0.639-0.139-1.242-0.098-1.845,0.124c-1.262,0.464-2.144,1.632-2.195,2.907c-0.035,0.875,0.283,1.708,0.895,2.344 c0.635,0.661,1.496,1.025,2.423,1.025h8.808c0.276,0,0.5,0.224,0.5,0.5s-0.224,0.5-0.5,0.5H24.07c-1.185,0-2.331-0.485-3.145-1.332 c-0.802-0.835-1.218-1.928-1.172-3.077c0.067-1.674,1.212-3.204,2.849-3.805c0.609-0.224,1.241-0.306,1.88-0.244 c0.344-1.396,1.629-2.424,3.136-2.424c0.493,0,0.976,0.113,1.414,0.323c0.009-0.241,0.036-0.483,0.082-0.725 c0.382-2.01,2.097-3.586,4.17-3.834c1.367-0.16,2.686,0.218,3.727,1.072c0.748,0.613,1.278,1.409,1.546,2.302 c0.791-0.648,1.785-1.007,2.842-1.007c2.458,0,4.457,1.962,4.457,4.373c0,0.034,0,0.068-0.001,0.103 c1.764,0.554,3.003,2.188,3.003,4.037C48.858,71.503,46.92,73.404,44.537,73.404z M34.879,73.404H34.52c-0.276,0-0.5-0.224-0.5-0.5 s0.224-0.5,0.5-0.5h0.359c0.276,0,0.5,0.224,0.5,0.5S35.156,73.404,34.879,73.404z"/><path fill="#472b29" d="M42.83,67.601c-0.018,0-0.036-0.002-0.055-0.006c-0.135-0.03-0.219-0.164-0.189-0.299 c0.038-0.167,0.094-0.328,0.169-0.479c0.604-1.224,2.274-1.674,3.722-1.006c0.125,0.058,0.18,0.207,0.122,0.332 c-0.059,0.126-0.206,0.18-0.332,0.122c-1.204-0.554-2.578-0.209-3.063,0.774c-0.058,0.116-0.101,0.24-0.129,0.367 C43.048,67.522,42.945,67.601,42.83,67.601z"/><path fill="#472b29" d="M37.671,73.404h-1.107c-0.276,0-0.5-0.224-0.5-0.5s0.224-0.5,0.5-0.5h1.107 c0.276,0,0.5,0.224,0.5,0.5S37.947,73.404,37.671,73.404z"/></g><g><polygon fill="#565fa0" points="58.526,65.869 72.25,63.909 72.25,51.165 58.526,52.145"/><polygon fill="#4a5397" points="72.25,51.165 64.408,48.224 53.624,49.204 58.526,52.145"/><polygon fill="#5058a0" points="53.624,49.204 53.624,61.948 58.526,65.869 58.526,52.145"/><polygon fill="#fcc938" points="41.861,67.83 56.565,65.869 56.565,52.145 41.861,53.126"/><polygon fill="#e2ad17" points="56.565,52.145 51.664,49.204 38.92,50.185 41.861,53.126"/><polygon fill="#f1bc19" points="38.92,50.185 38.92,63.909 41.861,67.83 41.861,53.126"/><polygon fill="#93bc39" points="58.526,50.185 72.25,49.204 72.25,34.5 58.526,34.5"/><polygon fill="#88ae45" points="53.624,36.461 53.624,47.244 58.526,50.185 58.526,34.5"/><polygon fill="#f45834" points="41.861,51.165 56.565,50.185 56.565,34.5 41.861,34.5"/><polygon fill="#e55838" points="38.92,36.461 38.92,48.224 41.861,51.165 41.861,34.5"/><g><path fill="#472b29" d="M58.526,66.119c-0.138,0-0.25-0.112-0.25-0.25V52.146c0-0.138,0.112-0.25,0.25-0.25 s0.25,0.112,0.25,0.25V65.87C58.776,66.007,58.664,66.119,58.526,66.119z"/><path fill="#472b29" d="M69.677,51.599c-0.13,0-0.24-0.101-0.249-0.232c-0.01-0.138,0.094-0.257,0.231-0.267l2.573-0.184 c0.14-0.025,0.257,0.094,0.267,0.231s-0.094,0.257-0.231,0.267l-2.573,0.184C69.688,51.599,69.683,51.599,69.677,51.599z"/><path fill="#472b29" d="M58.526,52.396c-0.13,0-0.24-0.101-0.249-0.232c-0.01-0.138,0.094-0.257,0.231-0.267l9.535-0.682 c0.12-0.03,0.258,0.094,0.267,0.231c0.01,0.138-0.094,0.257-0.231,0.267l-9.535,0.682C58.538,52.396,58.532,52.396,58.526,52.396z"/><path fill="#472b29" d="M58.526,66.119c-0.138,0-0.25-0.112-0.25-0.25V52.287l-1.448-0.868 c-0.118-0.071-0.156-0.225-0.086-0.344c0.071-0.119,0.223-0.155,0.344-0.086l1.569,0.941c0.075,0.046,0.121,0.127,0.121,0.215 v13.724C58.776,66.007,58.664,66.119,58.526,66.119z"/><path fill="#472b29" d="M41.861,53.376c-0.131,0-0.24-0.102-0.249-0.233c-0.01-0.138,0.095-0.257,0.232-0.266l14.704-0.98 c0.006-0.001,0.012-0.001,0.017-0.001c0.131,0,0.24,0.102,0.249,0.233c0.01,0.138-0.095,0.257-0.232,0.266l-14.704,0.98 C41.872,53.376,41.866,53.376,41.861,53.376z"/><path fill="#472b29" d="M56.565,66.119c-0.138,0-0.25-0.112-0.25-0.25V52.146c0-0.138,0.112-0.25,0.25-0.25 s0.25,0.112,0.25,0.25V65.87C56.815,66.007,56.703,66.119,56.565,66.119z"/><path fill="#472b29" d="M41.861,53.376c-0.066,0-0.13-0.026-0.177-0.073l-2.941-2.941c-0.098-0.098-0.098-0.256,0-0.354 s0.256-0.098,0.354,0l2.861,2.861l13.794-0.92l-2.257-1.354c-0.118-0.071-0.156-0.225-0.086-0.344 c0.071-0.119,0.224-0.155,0.344-0.086l2.941,1.765c0.094,0.057,0.14,0.167,0.114,0.273s-0.117,0.184-0.227,0.19l-14.704,0.98 C41.872,53.376,41.867,53.376,41.861,53.376z"/><path fill="#472b29" d="M41.861,56.949c-0.138,0-0.25-0.112-0.25-0.25v-2.127c0-0.138,0.112-0.25,0.25-0.25 s0.25,0.112,0.25,0.25v2.127C42.111,56.837,41.999,56.949,41.861,56.949z"/><path fill="#472b29" d="M41.861,68.08c-0.138,0-0.25-0.112-0.25-0.25v-9.58c0-0.138,0.112-0.25,0.25-0.25 s0.25,0.112,0.25,0.25v9.58C42.111,67.968,41.999,68.08,41.861,68.08z"/><path fill="#472b29" d="M41.861,53.376c-0.064,0-0.128-0.024-0.177-0.073l-2.941-2.941c-0.098-0.098-0.098-0.256,0-0.354 s0.256-0.098,0.354,0l2.941,2.941c0.098,0.098,0.098,0.256,0,0.354C41.989,53.352,41.926,53.376,41.861,53.376z"/><path fill="#472b29" d="M58.526,50.435c-0.045,0-0.09-0.013-0.129-0.035l-1.849-1.108 c-0.118-0.071-0.156-0.225-0.086-0.344c0.071-0.119,0.223-0.155,0.344-0.086l1.78,1.068l13.646-0.975 c0.14-0.021,0.257,0.094,0.267,0.231s-0.094,0.257-0.231,0.267l-13.724,0.98C58.538,50.435,58.532,50.435,58.526,50.435z"/><path fill="#472b29" d="M41.861,51.415c-0.066,0-0.13-0.026-0.177-0.073L38.743,48.4c-0.098-0.098-0.098-0.256,0-0.354 s0.256-0.098,0.354,0l2.861,2.861l14.357-0.958V34.5c0-0.138,0.112-0.25,0.25-0.25s0.25,0.112,0.25,0.25v15.685 c0,0.132-0.102,0.24-0.233,0.249l-14.704,0.98C41.872,51.415,41.867,51.415,41.861,51.415z"/><path fill="#472b29" d="M41.861,51.415c-0.138,0-0.25-0.112-0.25-0.25v-3.961c0-0.138,0.112-0.25,0.25-0.25 s0.25,0.112,0.25,0.25v3.961C42.111,51.303,41.999,51.415,41.861,51.415z"/><path fill="#472b29" d="M41.861,45.712c-0.138,0-0.25-0.112-0.25-0.25V34.5c0-0.138,0.112-0.25,0.25-0.25 s0.25,0.112,0.25,0.25v10.962C42.111,45.6,41.999,45.712,41.861,45.712z"/><path fill="#472b29" d="M58.526,50.435c-0.138,0-0.25-0.112-0.25-0.25V34.5c0-0.138,0.112-0.25,0.25-0.25 s0.25,0.112,0.25,0.25v15.685C58.776,50.322,58.664,50.435,58.526,50.435z"/></g><path fill="#472b29" d="M58.618,34.732L72,34.75v14.222l-4.159,0.298c-0.21,0.014-0.281,0.378-0.07,0.483L72,51.338v12.354 l-13.403,1.914l-1.781-1.426c-0.211-0.148-0.5-0.02-0.5,0.326v1.144l-14.342,1.912l-2.804-3.736v-13.41l1.476-0.113 c0.215-0.015,0.381-0.326,0.176-0.53L39.17,48.12V36.595l2.768-1.845h14.378v0.369c0,0.265,0.271,0.436,0.5,0.334L58.618,34.732 M58.618,33.332c-0.178,0-0.355,0.034-0.52,0.1l-0.8,0.32c-0.253-0.249-0.6-0.403-0.982-0.403H41.938 c-0.276,0-0.547,0.082-0.777,0.235l-2.768,1.845c-0.39,0.26-0.624,0.697-0.624,1.165V48.12c0,0.371,0.147,0.727,0.41,0.99 l0.171,0.171c-0.353,0.255-0.581,0.67-0.581,1.135v13.41c0,0.303,0.098,0.598,0.28,0.84l2.804,3.736 c0.266,0.355,0.683,0.56,1.12,0.56c0.061,0,0.123-0.004,0.185-0.012L56.5,67.038c0.391-0.052,0.726-0.262,0.944-0.56l0.277,0.222 c0.25,0.2,0.559,0.307,0.875,0.307c0.066,0,0.132-0.005,0.198-0.014l13.403-1.914c0.69-0.099,1.202-0.689,1.202-1.386V51.338 c0-0.486-0.251-0.93-0.651-1.183c0.393-0.249,0.651-0.688,0.651-1.183V34.75c0-0.772-0.626-1.399-1.398-1.4L58.62,33.332 C58.619,33.332,58.619,33.332,58.618,33.332L58.618,33.332z"/></g></svg>