<?xml version="1.0" encoding="UTF-8"?>
<svg id="Layer_2" data-name="Layer 2" xmlns="http://www.w3.org/2000/svg" viewBox="0 0 888.2 139.56">
  <defs>
    <style>
      .cls-1 {
        fill: #fefefe;
      }

      .cls-1, .cls-2, .cls-3, .cls-4, .cls-5, .cls-6 {
        stroke-width: 0px;
      }

      .cls-3 {
        fill: #171819;
      }

      .cls-4 {
        fill: #cccbcb;
      }

      .cls-5 {
        fill: #f5ad18;
      }

      .cls-6 {
        fill: #fcfcfc;
      }
    </style>
  </defs>
  <g id="Layer_1-2" data-name="Layer 1">
    <g>
      <g>
        <path class="cls-3" d="M32.93,113.22c.05-.94.34-1.8.94-2.52.22-.27.21-.51.12-.78-.43-1.22-.83-2.46-1.34-3.66-.27-.64-1.01-.84-1.54-1.25-1.37-1.04-2.74-2.08-4.05-3.19-2.26-1.91-4.33-4.02-6.37-6.15-1.78-1.87-3.51-3.79-5.16-5.77-1.65-1.98-3.24-4-4.76-6.08-1.86-2.54-3.52-5.22-5.02-7.98-1.57-2.89-2.9-5.92-3.82-9.09-.53-1.85-.99-3.72-1.25-5.64-.16-1.15-.33-2.29-.43-3.45-.1-.27.03-.57-.09-.84-.01-.34-.03-.68-.04-1.01-.12-.53.06-1.08-.1-1.6,0-1.09,0-2.19,0-3.28.16-.52,0-1.07.09-1.59.01-.35.03-.7.04-1.05.16-.3-.01-.63.1-.93.01-.22.02-.43.03-.65.14-.21,0-.46.1-.68.01-.17.02-.35.03-.52.14-.21,0-.46.1-.67.38-3.32,1.11-6.56,2.01-9.78.87-3.1,1.99-6.11,3.29-9.05,1.9-4.31,4.29-8.33,7.18-12.05,2.43-3.12,5.39-5.63,8.84-7.56,2.72-1.52,5.6-2.67,8.52-3.74,2.2-.81,4.39-1.67,6.67-2.25,3.74-.95,7.19-.1,10.49,1.66,1.53.82,2.86,1.9,4.16,3.03,1,.86,2.16,1.44,3.31,2.05.22.24.11.54.11.81,0,33.07,0,66.15,0,99.22,0,.28-.08.57.07.84,1.49.15,2.99.02,4.48.07.23,0,.32-.08.3-.31-.01-.13,0-.26,0-.4,0-35.2,0-70.39,0-105.59,0-.2,0-.4-.01-.59.29-.19.61-.08.91-.06l2.5.03c.57.16,1.16-.02,1.74.1.34.01.69.02,1.03.03.26.13.55,0,.82.09,10.29,1.06,19.64,4.53,27.86,10.88,8.66,6.69,14.5,15.37,17.9,25.71,2.46,7.49,3.23,15.17,2.29,23-1.4,11.64-6.07,21.78-14,30.4-2.18,2.37-4.4,4.71-6.41,7.23-2.7,3.39-4.66,7.13-5.38,11.46-.04.22-.01.41.14.61.8,1.08,1.11,2.31,1.03,3.64-.06.98.08,1.97-.11,2.96-.3,1.55-1.11,2.73-2.4,3.58-.31.2-.37.35-.22.71.66,1.66.5,3.39.4,5.12-.07,1.23-.54,2.3-1.35,3.25-1.07,1.26-2.45,1.97-4.06,2.03-2.36.09-4.72.05-7.07.01-.61-.01-.76.18-.69.73.04.33.02.66.02.99-.14.21,0,.46-.1.68-.31,1.09-.7,2.12-1.47,3-1.13,1.31-2.57,2.09-4.24,2.11-5.11.08-10.22.08-15.32,0-1.05-.02-2.08-.51-2.93-1.21-1.19-.97-1.94-2.2-2.27-3.71-.15-.7-.1-1.39-.1-2.08,0-.4-.1-.51-.51-.51-2.51.01-5.02.03-7.53-.03-1.44-.03-2.59-.74-3.6-1.73-1.26-1.22-1.65-2.73-1.6-4.41.04-1.46-.16-2.94.42-4.34.23-.56-.34-.62-.53-.76-1.31-.95-1.97-2.23-2.16-3.79-.06-1.23-.06-2.47,0-3.7Z"/>
        <path class="cls-6" d="M55.18,108.01c-.14-.25-.06-.52-.06-.77,0-33.07,0-66.14,0-99.2,0-.3.07-.62-.11-.9.15.06.18.18.18.32,0,.18,0,.35,0,.53,0,33.34,0,66.69,0,100.03Z"/>
        <path class="cls-6" d="M32.93,113.22c0,1.23,0,2.47,0,3.7-.17-1.23-.17-2.47,0-3.7Z"/>
        <path class="cls-6" d="M65.1,1.27c-.58,0-1.16,0-1.74-.1.58.04,1.17-.13,1.74.1Z"/>
        <path class="cls-6" d="M.02,54.2l.1,1.6c-.22-.52-.06-1.07-.1-1.6Z"/>
        <path class="cls-6" d="M.11,49.33c0,.53.01,1.07-.09,1.59.04-.53-.11-1.07.09-1.59Z"/>
        <path class="cls-6" d="M8.49,6.59c0-.39,0-.79,0-1.18.19.39.19.79,0,1.18Z"/>
        <path class="cls-6" d="M.25,47.34c.01.32,0,.63-.1.93.03-.31-.1-.64.1-.93Z"/>
        <path class="cls-6" d="M5.97,8.06c.31,0,.61,0,.92,0-.31.19-.61.19-.92,0Z"/>
        <path class="cls-6" d="M60.86,1.14c-.3.02-.61.04-.91.06.29-.28.6-.2.91-.06Z"/>
        <path class="cls-6" d="M.16,56.81c.1.27.11.55.09.84-.2-.26-.08-.56-.09-.84Z"/>
        <path class="cls-6" d="M66.95,1.4c-.28.02-.55,0-.82-.09.27.02.56-.1.82.09Z"/>
        <path class="cls-6" d="M.38,46.02c.02.23,0,.46-.1.68.02-.23-.08-.47.1-.68Z"/>
        <path class="cls-6" d="M.52,44.83c.01.23,0,.46-.1.67.02-.23-.08-.47.1-.67Z"/>
        <path class="cls-6" d="M74.78,134.38c0-.23,0-.46.1-.68-.02.23.08.47-.1.68Z"/>
        <path class="cls-5" d="M64.19,56.93c0-16.84,0-33.69,0-50.53,0-.46-.02-.77.63-.72,7.83.54,15.22,2.58,22.01,6.56,10.37,6.08,17.38,14.93,21.38,26.21,2.09,5.89,3.02,11.99,2.73,18.24-.58,12.39-5.12,23.13-13.61,32.2-2.77,2.96-5.54,5.92-7.84,9.28-2,2.91-3.52,6.04-4.3,9.51-.06.28-.1.5-.53.5-6.55-.02-13.1-.03-19.64-.01-.65,0-.85-.13-.84-.82.02-16.8.02-33.6.02-50.4Z"/>
        <path class="cls-4" d="M13.44,18.87c.8-1.28,1.7-2.42,2.62-3.53,3.22-3.88,7.36-6.44,11.95-8.35,1.3-.54,2.62-1.03,3.92-1.56.3-.12.52-.11.76.13.44.43.91.83,1.37,1.24.38.33.35.6-.09.87-2.67,1.67-4.12,4.14-4.66,7.19-.17.95-.24,1.92-.13,2.89.11,1.04.7,1.67,1.55,1.64.86-.03,1.51-.72,1.55-1.74.04-.86.05-1.71.22-2.56.29-1.4.9-2.6,1.93-3.61.88-.87,1.77-1.72,2.83-2.37.5-.31.99-.49,1.61-.23.49.21,1.04.17,1.52-.13.65-.42.77-1.22.27-1.97-.4-.61-1-.98-1.65-1.27-.7-.32-1.41-.62-2.11-.94-.21-.1-.53-.18-.53-.44,0-.32.36-.35.59-.43,2.61-.85,5.16-.64,7.66.46,2.51,1.1,4.57,2.79,6.4,4.8.26.28.25.59.25.92,0,8.22,0,16.45,0,24.67v.43c-.27-.13-.25-.4-.31-.6-1-3.18-1.69-6.42-2.27-9.7-.09-.51-.23-.99-.56-1.39-.78-.91-1.93-.71-2.34.41-.26.7-.21,1.43-.09,2.16.21,1.22.42,2.43.55,3.66.15,1.44-.03,1.73-1.38,2.13-1.88.55-2.99,1.97-3.87,3.58-1.02,1.84-1.25,3.83-.9,5.89.18,1.08.8,1.66,1.6,1.62.8-.04,1.43-.86,1.46-1.91.03-.86-.08-1.71.1-2.57.29-1.37,1.03-2.48,2.05-3.39.78-.7,1.41-.62,2.12.15.55.59.91,1.3,1.25,2.01.85,1.79,1.55,3.64,2.48,5.39.08.15.12.34.12.5,0,1.58,0,3.16,0,4.75-.25-.05-.22-.27-.31-.41-.14-.22-.23-.48-.37-.7-.58-.87-1.47-1.28-2.17-.99-.69.28-.95,1.07-.67,2.19.16.64.42,1.25.59,1.89.38,1.45-.19,2.18-1.69,2.12-1.7-.07-3.32-.43-4.63-1.64-.41-.38-.9-.63-1.45-.75-.55-.12-1.07-.07-1.46.38-.39.46-.31.99-.09,1.5.23.54.61.96,1.03,1.36,1.79,1.63,3.94,2.24,6.3,2.3,1.09.03,2.15-.17,3.22-.29,1.31-.15,1.68.2,1.68,1.49,0,5.89,0,11.77,0,17.66v.91c-.4-.45-.7-.77-.97-1.11-1.27-1.59-2.08-3.43-2.65-5.35-1.06-3.6-2.98-6.63-5.7-9.21-2.22-2.11-4.4-4.27-6.18-6.78-.86-1.21-1.59-2.49-2-3.92-.54-1.86-.31-3.62.78-5.24.41-.61.62-1.26.4-2-.32-1.03-1.3-1.37-2.19-.75-.47.32-.76.8-1.09,1.23-1.54,2-2.21,2.19-4.58,1.37-1.42-.49-2.69-1.19-3.73-2.29-.31-.33-.7-.53-1.14-.63-.67-.17-1.42.1-1.76.63-.39.61-.23,1.2.18,1.72.6.77,1.33,1.41,2.12,1.98,1.05.76,2.25,1.2,3.41,1.72,2.78,1.22,4.92,3.09,6.29,5.85,1.66,3.35,3.98,6.22,6.64,8.83.64.63,1.27,1.28,1.9,1.93,1.69,1.73,2.75,3.81,3.45,6.09,1.22,3.99,3.17,7.5,6.58,10.04.24.18.24.39.24.64,0,3.48,0,6.97,0,10.45,0,.43-.09.57-.5.36-.1-.05-.21-.11-.31-.1-1.1.12-1.28-.66-1.47-1.46-.25-1.07-.44-2.16-.84-3.19-.2-.52-.45-1.01-.83-1.41-.72-.77-1.59-.59-1.94.41-.29.84-.24,1.7-.06,2.54.29,1.38.61,2.75.66,4.17.14,4.22-1.53,6.06-4.45,7.11-5.25,1.88-10.32,1.31-15.07-1.62-1.62-1-2.81-2.53-4.12-3.9-2.68-2.81-5.34-5.63-7.62-8.78-.39-.54-.74-1.09-1.01-1.7-.34-.79-.27-1,.53-1.27,1.59-.54,3.24-.64,4.89-.57,5.6.25,10.94,1.7,16.17,3.61.83.3,1.63.66,2.44,1,.71.29,1.44.42,2.19.14.96-.36,1.2-1.27.57-2.07-.41-.52-.98-.81-1.56-1.08-.54-.25-1.07-.53-1.51-.93-.59-.54-.68-1.15-.16-1.75,1.15-1.33,2.51-2.33,4.34-2.52.66-.07,1.32-.1,1.92-.42.56-.3,1.01-.71.98-1.37-.03-.71-.54-1.1-1.19-1.25-2.07-.46-3.98.03-5.73,1.14-1.38.87-2.72,1.8-4.07,2.71-.35.23-.72.43-1.04.7-1.15.95-2.26,1.09-3.69.4-1.98-.96-4.2-1.11-6.37-1.29-2.66-.22-5.32-.38-7.96.21-.6.13-1.21.27-1.77.53-.93.43-1.52.28-2.35-.55-.5-.5-.87-1.11-1.21-1.72-.72-1.29-1.29-2.65-1.88-4-.31-.71-.17-.94.57-1,4.13-.33,8.25-.65,12.4-.62,2.58.02,5.06.65,7.57,1.06,1.57.26,3.15.45,4.72.09,2-.46,3.19-1.87,3.31-3.92.18-3.08-.69-5.97-1.76-8.8-.11-.28-.32-.53-.51-.77-.38-.46-.87-.72-1.46-.51-.59.21-.76.74-.8,1.33-.05.69.23,1.29.45,1.91.13.38.51.92.19,1.15-.36.27-.77-.24-1.11-.49-.54-.4-.93-.93-1.24-1.52-.38-.73-.85-1.39-1.52-1.89-.46-.34-.98-.56-1.53-.26-.54.3-.6.86-.53,1.4.28,2.09,1.44,3.65,3.03,4.93.87.7,1.81,1.34,2.58,2.16.38.4.99.82.71,1.44-.25.56-.94.5-1.48.5-2.14.03-4.25-.32-6.37-.63-3.24-.47-6.5-.44-9.76-.32-2.11.08-4.22.23-6.33.42-.37.03-.75.03-1.12,0-1.46-.09-2.43-.81-2.86-2.23-.43-1.46-.62-2.97-.86-4.47-.07-.46.1-.7.59-.53,4.18,1.49,8.34.88,12.49-.13.98-.24,1.95-.54,2.92-.83.53-.16,1.01-.44,1.34-.91.58-.82.24-1.81-.71-2.12-.62-.2-1.21-.07-1.81.1-1.37.39-2.74.84-4.19.83-1.29-.02-2.23-.58-2.81-1.74-.7-1.41-.86-2.95-1.07-4.47-.3-2.2.08-4.29.9-6.33.31-.78.51-1.6.31-2.45-.23-.99-1.01-1.31-1.84-.74-.67.45-1.06,1.12-1.35,1.84-1.54,3.83-1.93,7.66-.02,11.51.32.65.62,1.32.76,2.04.12.6-.12.92-.73,1.01-3.13.46-5.72-1.74-5.72-4.88,0-2.33.59-4.58,1.02-6.85.56-2.94,1.36-5.83,1.82-8.79.23-1.45.55-1.56,1.82-.84.36.21.72.42,1.08.64.94.58,1.95.75,3.04.53,1.03-.2,1.35.03,1.57,1.06.29,1.36.16,2.77.39,4.14.5,3.07,1.67,5.7,4.57,7.25,1.32.71,2.76,1.03,4.25,1.09,1,.04,1.59-.49,1.66-1.39.07-.96-.49-1.63-1.48-1.76-.46-.06-.92-.1-1.37-.19-2.46-.5-3.75-2.15-4.3-4.47-.42-1.75-.45-3.54-.27-5.32.1-1,.63-1.71,1.6-2.07,1.04-.38,2.13-.56,3.2-.78.93-.19,1.85-.43,2.62-1.02.43-.33.83-.73.71-1.32-.13-.63-.67-.84-1.22-.96-1.43-.29-2.8.08-4.15.48-1.84.53-3.57,1.38-5.48,1.7-1.05.17-2.09.28-3.15.08-1.81-.35-2.74-1.57-2.52-3.41.23-2.01,1.26-3.73,1.96-5.58.53-1.39,1.47-2.37,2.63-3.21,1.77-1.27,3.67-1.52,5.69-.71,2.22.9,3.94,2.48,5.53,4.2,2.43,2.61,4.4,5.55,6.25,8.59.37.61.8,1.17,1.5,1.43.99.38,1.8-.17,1.81-1.22,0-.65-.22-1.25-.54-1.81-1.04-1.83-.88-3.09.63-4.55,1.62-1.56,3.46-2.71,5.79-2.89.5-.04.99-.18,1.43-.46.68-.43,1.01-1.01.84-1.64-.19-.68-.75-.95-1.39-1.05-.91-.14-1.8.01-2.69.2-2.47.54-4.45,1.95-6.34,3.53-.44.37-.85.77-1.26,1.17-.32.31-.57.37-.83-.06-1.44-2.31-3.41-4.14-5.43-5.92-2.61-2.3-5.64-2.79-8.96-2.16-.38.07-.75.24-1.22.18Z"/>
        <path class="cls-4" d="M61.67,117.83c-7.32,0-14.64,0-21.95,0-1.59,0-2.11-.52-2.11-2.08,0-.6,0-1.19,0-1.79.02-.86.46-1.4,1.31-1.57.26-.05.52-.07.79-.07,14.61,0,29.23,0,43.84,0,1.63,0,2.13.5,2.13,2.13,0,.53,0,1.06,0,1.59,0,1.18-.6,1.79-1.79,1.8-2.49.01-4.98,0-7.47,0h-14.75Z"/>
        <path class="cls-4" d="M61.67,127.75c-6.77,0-13.53,0-20.3,0-1.33,0-1.82-.49-1.82-1.84,0-.71,0-1.41,0-2.12.01-.9.52-1.43,1.41-1.51.2-.02.4,0,.59,0,13.4,0,26.8,0,40.2,0,1.55,0,1.99.45,1.99,2.01,0,.55,0,1.1,0,1.65,0,1.29-.52,1.81-1.79,1.81-6.77,0-13.53,0-20.3,0Z"/>
        <path class="cls-4" d="M51.28,100.61c0,1.92,0,3.83,0,5.75,0,.41-.07.59-.54.69-4.19.9-8.18.25-12.04-1.44-1.65-.72-3.3-1.47-4.84-2.4-.31-.19-.81-.38-.72-.76.09-.37.62-.32.98-.35,2.34-.2,4.71-.18,7.03-.65,2.7-.55,5.07-1.61,6.5-4.16.49-.87.78-1.81,1.13-2.74.11-.31.26-.6.41-.9.12-.24.34-.32.61-.31.68.05,1.49.89,1.49,1.57,0,1.89,0,3.79,0,5.68Z"/>
        <path class="cls-5" d="M61.66,131.79c2.78,0,5.55.01,8.33-.01.53,0,.72.15.65.67-.05.37,0,.75-.06,1.12-.16,1.03-.9,1.71-1.94,1.71-4.65.02-9.29.02-13.94,0-1.15,0-1.98-.87-2.03-2.02q-.07-1.47,1.4-1.47c2.53,0,5.07,0,7.6,0Z"/>
        <path class="cls-1" d="M106.78,53.36c0,.22.01.39,0,.57-.06.85-.62,1.45-1.39,1.49-.77.04-1.4-.42-1.52-1.26-.21-1.39-.3-2.8-.51-4.19-1.18-7.99-4.25-15.18-9.16-21.58-1.77-2.31-3.75-4.45-5.93-6.38-.39-.34-.72-.72-.86-1.22-.14-.49-.11-.97.25-1.36.37-.39.83-.47,1.34-.34.53.13.97.41,1.37.77,6.27,5.58,10.78,12.34,13.63,20.22,1.56,4.31,2.47,8.76,2.79,13.29Z"/>
      </g>
      <g>
        <rect class="cls-2" x="231.4" y="29.94" width="23.16" height="50.84"/>
        <rect class="cls-2" x="231.4" y="92.1" width="23.16" height="15.15"/>
        <g>
          <rect class="cls-2" x="200.21" y="29.93" width="23.5" height="77.28"/>
          <path class="cls-2" d="M150.3,30.91h23.73v33.5s.14,13.29.41,14.92,1.08,8.07,6.03,9.63c4.95,1.56,10.91.2,11.25.07s8.34-2.44,8.47-13.36v7.66s-2.17,8.75-5.08,13.22-6.03,7.87-8.68,9.29c-2.64,1.42-5.15,3.73-16.34,2.85-11.19-.88-16.61-11.87-16.61-11.87,0,0-2.98-5.56-2.98-10.92s-.2-54.99-.2-54.99Z"/>
        </g>
        <g>
          <rect class="cls-2" x="579.8" y="29.97" width="23.5" height="77.26"/>
          <path class="cls-2" d="M529.9,30.94h23.73v33.49s.14,13.29.41,14.91,1.08,8.07,6.03,9.63,10.91.2,11.25.07,8.34-2.44,8.47-13.35v7.66s-2.17,8.75-5.08,13.22-6.03,7.86-8.68,9.29-5.15,3.73-16.34,2.85c-11.19-.88-16.61-11.86-16.61-11.86,0,0-2.98-5.56-2.98-10.91s-.2-54.98-.2-54.98Z"/>
        </g>
        <g>
          <rect class="cls-2" x="262.32" y="29.94" width="23.47" height="77.26" transform="translate(548.12 137.14) rotate(180)"/>
          <path class="cls-2" d="M335.65,106.23h-23.7v-33.49s-.14-13.29-.41-14.91-1.08-8.07-6.03-9.63-10.9-.2-11.24-.07-8.33,2.44-8.47,13.35v-7.66s2.17-8.74,5.08-13.22,6.03-7.86,8.67-9.29,5.15-3.73,16.32-2.85c11.17.88,16.59,11.86,16.59,11.86,0,0,2.98,5.56,2.98,10.91s.2,54.98.2,54.98Z"/>
        </g>
        <g>
          <rect class="cls-2" x="466.86" y="29.98" width="23.94" height="77.23"/>
          <ellipse class="cls-2" cx="507.61" cy="40.41" rx="14.65" ry="12.67"/>
        </g>
        <g>
          <rect class="cls-2" x="832.79" y="29.98" width="23.94" height="77.23"/>
          <ellipse class="cls-2" cx="873.54" cy="40.41" rx="14.65" ry="12.67"/>
        </g>
        <path class="cls-2" d="M387.53,52.92c-.25-2.79-1.38-4.96-3.37-6.52-1.99-1.56-4.82-2.34-8.5-2.34-2.43,0-4.46.32-6.08.95-1.62.63-2.84,1.5-3.65,2.61-.81,1.1-1.23,2.36-1.25,3.78-.05,1.17.18,2.19.7,3.08.52.89,1.28,1.67,2.28,2.34,1,.67,2.21,1.26,3.63,1.77,1.42.51,3.02.95,4.79,1.33l6.69,1.52c3.85.84,7.26,1.95,10.21,3.35,2.95,1.39,5.44,3.06,7.45,4.98,2.02,1.93,3.54,4.15,4.58,6.66,1.04,2.51,1.57,5.32,1.6,8.44-.03,4.92-1.27,9.14-3.73,12.66-2.46,3.52-5.99,6.22-10.59,8.1s-10.15,2.81-16.64,2.81-12.2-.98-17.04-2.93c-4.84-1.95-8.61-4.92-11.3-8.9-2.69-3.98-4.07-9.01-4.15-15.1h18.03c.15,2.51.82,4.6,2.02,6.28,1.19,1.67,2.83,2.94,4.92,3.8,2.09.86,4.52,1.29,7.28,1.29,2.53,0,4.7-.34,6.48-1.03s3.16-1.64,4.13-2.85c.96-1.22,1.46-2.61,1.48-4.18-.03-1.47-.48-2.73-1.37-3.78-.89-1.05-2.25-1.96-4.09-2.74-1.84-.77-4.18-1.49-7.02-2.15l-8.14-1.9c-6.74-1.55-12.06-4.05-15.94-7.51-3.88-3.46-5.81-8.14-5.78-14.05-.03-4.82,1.27-9.04,3.88-12.66,2.61-3.63,6.22-6.45,10.84-8.48,4.61-2.03,9.88-3.04,15.78-3.04s11.28,1.02,15.73,3.06c4.45,2.04,7.9,4.9,10.36,8.58,2.46,3.68,3.71,7.94,3.77,12.78h-18.03Z"/>
        <path class="cls-2" d="M613.31,107.25V4.37h24.56v102.88h-24.56ZM635.46,87.01l.1-29.29h3.42l21.7-27.63h27.83l-32.25,39.58h-6.48l-14.32,17.33ZM661.23,107.25l-20.19-32.05,16.18-17.43,32.4,49.48h-28.38Z"/>
        <path class="cls-2" d="M825.12,68.6c0,8.71-1.67,16.09-5.02,22.14s-7.88,10.65-13.58,13.79-12.1,4.71-19.18,4.71-13.51-1.58-19.2-4.75c-5.69-3.17-10.21-7.77-13.54-13.81-3.34-6.04-5-13.4-5-22.08s1.67-16.09,5-22.14c3.34-6.05,7.85-10.65,13.54-13.79,5.69-3.14,12.09-4.71,19.2-4.71s13.48,1.57,19.18,4.71c5.71,3.14,10.23,7.74,13.58,13.79s5.02,13.43,5.02,22.14ZM805.57,68.6c0-5.15-.73-9.51-2.18-13.06-1.46-3.56-3.54-6.25-6.26-8.08-2.72-1.83-5.98-2.74-9.8-2.74s-7.05.91-9.78,2.74c-2.73,1.83-4.82,4.52-6.28,8.08-1.46,3.55-2.18,7.91-2.18,13.06s.73,9.5,2.18,13.06c1.46,3.56,3.55,6.25,6.28,8.08,2.73,1.83,5.99,2.74,9.78,2.74s7.08-.91,9.8-2.74c2.72-1.83,4.8-4.52,6.26-8.08,1.46-3.55,2.18-7.91,2.18-13.06Z"/>
        <path class="cls-2" d="M455.52,29.75v18.22h-39.96v-18.22h39.96ZM423.93,11.13h20.17v71.93c0,1.52.2,2.74.6,3.67.4.93.98,1.59,1.75,1.97.77.39,1.69.58,2.76.58.77,0,1.59-.09,2.45-.28.87-.18,1.52-.35,1.96-.48l3.05,17.87c-.96.34-2.32.76-4.06,1.26-1.75.51-3.83.83-6.25.96-4.73.27-8.78-.41-12.15-2.05-3.37-1.64-5.94-4.19-7.71-7.67-1.77-3.48-2.63-7.85-2.58-13.11V11.13Z"/>
        <path class="cls-2" d="M739.26,29.75v18.22h-39.96v-18.22h39.96ZM707.67,11.13h20.17v71.93c0,1.52.2,2.74.6,3.67.4.93.98,1.59,1.75,1.97.77.39,1.69.58,2.76.58.77,0,1.59-.09,2.45-.28.87-.18,1.52-.35,1.96-.48l3.05,17.87c-.96.34-2.32.76-4.06,1.26-1.75.51-3.83.83-6.25.96-4.73.27-8.78-.41-12.15-2.05-3.37-1.64-5.94-4.19-7.71-7.67-1.77-3.48-2.63-7.85-2.58-13.11V11.13Z"/>
      </g>
    </g>
  </g>
</svg>