<svg width="1200" height="344" viewBox="0 0 1200 344" fill="none" xmlns="http://www.w3.org/2000/svg">
<g clip-path="url(#clip0_3_6)">
<rect y="-18" width="1200" height="380" fill="#F6C445"/>
<g style="mix-blend-mode:luminosity">
<circle cx="1043.4" cy="144.444" r="62.4" fill="#63B6E8"/>
</g>
<g style="mix-blend-mode:luminosity">
<circle cx="1124.29" cy="64.7111" r="116.711" fill="#E7544D"/>
</g>
<g style="mix-blend-mode:luminosity">
<circle cx="18" cy="298" r="201" fill="white"/>
</g>
<g style="mix-blend-mode:luminosity">
<circle cx="134" cy="156" r="83" fill="#300473"/>
</g>
<path d="M484.684 131.531H475.974C475.815 130.404 475.49 129.403 475 128.528C474.509 127.64 473.88 126.884 473.111 126.261C472.342 125.638 471.453 125.161 470.446 124.83C469.451 124.498 468.371 124.332 467.204 124.332C465.096 124.332 463.26 124.856 461.696 125.903C460.131 126.937 458.918 128.449 458.057 130.438C457.195 132.413 456.764 134.812 456.764 137.636C456.764 140.54 457.195 142.979 458.057 144.955C458.932 146.93 460.151 148.421 461.716 149.429C463.28 150.437 465.09 150.94 467.145 150.94C468.298 150.94 469.365 150.788 470.346 150.483C471.341 150.178 472.222 149.734 472.991 149.151C473.76 148.554 474.397 147.831 474.9 146.983C475.417 146.134 475.775 145.167 475.974 144.08L484.684 144.119C484.459 145.989 483.896 147.792 482.994 149.528C482.106 151.252 480.906 152.796 479.395 154.162C477.897 155.514 476.107 156.588 474.025 157.384C471.957 158.166 469.617 158.557 467.005 158.557C463.373 158.557 460.125 157.735 457.261 156.091C454.411 154.447 452.157 152.067 450.5 148.952C448.856 145.836 448.034 142.064 448.034 137.636C448.034 133.195 448.869 129.417 450.54 126.301C452.21 123.186 454.477 120.812 457.341 119.182C460.204 117.538 463.426 116.716 467.005 116.716C469.365 116.716 471.553 117.047 473.568 117.71C475.596 118.373 477.393 119.341 478.957 120.614C480.522 121.873 481.794 123.418 482.775 125.247C483.77 127.077 484.406 129.171 484.684 131.531ZM505.621 158.597C502.532 158.597 499.861 157.94 497.607 156.628C495.366 155.302 493.636 153.459 492.417 151.099C491.197 148.726 490.587 145.975 490.587 142.847C490.587 139.691 491.197 136.934 492.417 134.574C493.636 132.201 495.366 130.358 497.607 129.045C499.861 127.72 502.532 127.057 505.621 127.057C508.71 127.057 511.375 127.72 513.616 129.045C515.869 130.358 517.606 132.201 518.826 134.574C520.045 136.934 520.655 139.691 520.655 142.847C520.655 145.975 520.045 148.726 518.826 151.099C517.606 153.459 515.869 155.302 513.616 156.628C511.375 157.94 508.71 158.597 505.621 158.597ZM505.661 152.034C507.066 152.034 508.24 151.636 509.181 150.841C510.122 150.032 510.831 148.932 511.309 147.54C511.799 146.148 512.044 144.563 512.044 142.787C512.044 141.01 511.799 139.426 511.309 138.034C510.831 136.642 510.122 135.542 509.181 134.733C508.24 133.924 507.066 133.52 505.661 133.52C504.242 133.52 503.049 133.924 502.081 134.733C501.127 135.542 500.404 136.642 499.914 138.034C499.437 139.426 499.198 141.01 499.198 142.787C499.198 144.563 499.437 146.148 499.914 147.54C500.404 148.932 501.127 150.032 502.081 150.841C503.049 151.636 504.242 152.034 505.661 152.034ZM538.539 158.497C536.219 158.497 534.118 157.901 532.236 156.707C530.366 155.501 528.881 153.731 527.781 151.398C526.694 149.051 526.15 146.174 526.15 142.767C526.15 139.267 526.714 136.357 527.841 134.037C528.968 131.704 530.466 129.96 532.335 128.807C534.218 127.64 536.279 127.057 538.52 127.057C540.23 127.057 541.655 127.348 542.795 127.932C543.949 128.502 544.877 129.218 545.579 130.08C546.295 130.928 546.839 131.763 547.21 132.585H547.468V117.273H555.92V158H547.568V153.108H547.21C546.812 153.956 546.249 154.798 545.52 155.634C544.804 156.455 543.869 157.138 542.716 157.682C541.575 158.225 540.183 158.497 538.539 158.497ZM541.224 151.756C542.59 151.756 543.743 151.384 544.684 150.642C545.639 149.886 546.368 148.832 546.872 147.48C547.389 146.128 547.647 144.544 547.647 142.727C547.647 140.911 547.396 139.333 546.892 137.994C546.388 136.655 545.659 135.621 544.704 134.892C543.75 134.163 542.59 133.798 541.224 133.798C539.832 133.798 538.659 134.176 537.704 134.932C536.75 135.687 536.027 136.735 535.537 138.074C535.046 139.413 534.801 140.964 534.801 142.727C534.801 144.504 535.046 146.075 535.537 147.44C536.04 148.793 536.763 149.853 537.704 150.622C538.659 151.378 539.832 151.756 541.224 151.756ZM577.926 158.597C574.784 158.597 572.079 157.96 569.812 156.688C567.558 155.402 565.822 153.585 564.602 151.239C563.382 148.879 562.772 146.088 562.772 142.866C562.772 139.724 563.382 136.967 564.602 134.594C565.822 132.221 567.539 130.371 569.753 129.045C571.98 127.72 574.592 127.057 577.588 127.057C579.603 127.057 581.479 127.382 583.216 128.031C584.966 128.668 586.49 129.629 587.789 130.915C589.102 132.201 590.123 133.818 590.852 135.767C591.581 137.703 591.946 139.97 591.946 142.568V144.895H566.153V139.645H583.971C583.971 138.425 583.706 137.345 583.176 136.403C582.646 135.462 581.91 134.726 580.968 134.196C580.04 133.652 578.96 133.381 577.727 133.381C576.441 133.381 575.301 133.679 574.307 134.276C573.325 134.859 572.557 135.648 572 136.642C571.443 137.623 571.158 138.717 571.145 139.923V144.915C571.145 146.426 571.423 147.732 571.98 148.832C572.55 149.933 573.352 150.781 574.386 151.378C575.42 151.974 576.646 152.273 578.065 152.273C579.006 152.273 579.868 152.14 580.65 151.875C581.432 151.61 582.102 151.212 582.659 150.682C583.216 150.152 583.64 149.502 583.932 148.733L591.767 149.25C591.369 151.133 590.554 152.777 589.321 154.182C588.101 155.574 586.523 156.661 584.588 157.443C582.665 158.212 580.445 158.597 577.926 158.597ZM646.9 117.273V158H639.462L621.743 132.366H621.445V158H612.834V117.273H620.391L637.971 142.886H638.328V117.273H646.9ZM654.975 158V127.455H663.446V158H654.975ZM659.23 123.517C657.971 123.517 656.89 123.099 655.989 122.264C655.101 121.416 654.657 120.402 654.657 119.222C654.657 118.055 655.101 117.054 655.989 116.219C656.89 115.37 657.971 114.946 659.23 114.946C660.49 114.946 661.564 115.37 662.452 116.219C663.354 117.054 663.804 118.055 663.804 119.222C663.804 120.402 663.354 121.416 662.452 122.264C661.564 123.099 660.49 123.517 659.23 123.517ZM679.824 140.341V158H671.353V127.455H679.426V132.844H679.784C680.461 131.067 681.594 129.662 683.185 128.628C684.776 127.58 686.705 127.057 688.972 127.057C691.093 127.057 692.943 127.521 694.52 128.449C696.098 129.377 697.324 130.703 698.199 132.426C699.074 134.136 699.512 136.178 699.512 138.551V158H691.04V140.062C691.053 138.193 690.576 136.735 689.608 135.688C688.64 134.627 687.308 134.097 685.611 134.097C684.471 134.097 683.463 134.342 682.588 134.832C681.727 135.323 681.05 136.039 680.56 136.98C680.083 137.908 679.837 139.028 679.824 140.341ZM707.308 127.455H715.78V159.511C715.78 161.871 715.316 163.78 714.388 165.239C713.46 166.697 712.128 167.764 710.391 168.44C708.667 169.116 706.606 169.455 704.206 169.455C703.915 169.455 703.636 169.448 703.371 169.435C703.093 169.435 702.801 169.428 702.496 169.415V162.793C702.721 162.806 702.92 162.812 703.093 162.812C703.252 162.826 703.424 162.832 703.61 162.832C704.975 162.832 705.93 162.541 706.473 161.957C707.03 161.387 707.308 160.526 707.308 159.372V127.455ZM711.524 123.517C710.278 123.517 709.204 123.099 708.303 122.264C707.401 121.416 706.951 120.402 706.951 119.222C706.951 118.055 707.401 117.054 708.303 116.219C709.204 115.37 710.278 114.946 711.524 114.946C712.797 114.946 713.878 115.37 714.766 116.219C715.667 117.054 716.118 118.055 716.118 119.222C716.118 120.402 715.667 121.416 714.766 122.264C713.878 123.099 712.797 123.517 711.524 123.517ZM732.397 158.577C730.448 158.577 728.711 158.239 727.186 157.562C725.662 156.873 724.455 155.859 723.567 154.52C722.692 153.168 722.254 151.484 722.254 149.469C722.254 147.772 722.566 146.347 723.189 145.193C723.812 144.04 724.661 143.112 725.735 142.409C726.808 141.706 728.028 141.176 729.394 140.818C730.772 140.46 732.218 140.208 733.729 140.062C735.505 139.877 736.937 139.705 738.024 139.545C739.111 139.373 739.9 139.121 740.391 138.79C740.881 138.458 741.127 137.968 741.127 137.318V137.199C741.127 135.939 740.729 134.965 739.933 134.276C739.151 133.586 738.038 133.241 736.593 133.241C735.068 133.241 733.855 133.58 732.953 134.256C732.052 134.919 731.455 135.754 731.164 136.761L723.328 136.125C723.726 134.269 724.508 132.665 725.675 131.312C726.842 129.947 728.346 128.9 730.189 128.17C732.045 127.428 734.193 127.057 736.632 127.057C738.329 127.057 739.953 127.256 741.504 127.653C743.069 128.051 744.454 128.668 745.661 129.503C746.88 130.338 747.842 131.412 748.544 132.724C749.247 134.024 749.598 135.581 749.598 137.398V158H741.564V153.764H741.325C740.835 154.719 740.179 155.561 739.357 156.29C738.535 157.006 737.547 157.569 736.394 157.98C735.24 158.378 733.908 158.577 732.397 158.577ZM734.823 152.73C736.069 152.73 737.169 152.485 738.124 151.994C739.078 151.491 739.827 150.814 740.371 149.966C740.915 149.117 741.186 148.156 741.186 147.082V143.841C740.921 144.013 740.557 144.172 740.093 144.318C739.642 144.451 739.131 144.577 738.561 144.696C737.991 144.802 737.421 144.902 736.851 144.994C736.281 145.074 735.764 145.147 735.3 145.213C734.306 145.359 733.437 145.591 732.695 145.909C731.952 146.227 731.376 146.658 730.965 147.202C730.554 147.732 730.348 148.395 730.348 149.19C730.348 150.344 730.766 151.225 731.601 151.835C732.45 152.432 733.523 152.73 734.823 152.73Z" fill="black"/>
<path d="M473.57 226H464.343L478.403 185.273H489.499L503.539 226H494.312L484.11 194.58H483.792L473.57 226ZM472.994 209.991H494.789V216.713H472.994V209.991ZM518.172 185.273V226H509.561V185.273H518.172ZM540.457 226V185.273H567.901V192.372H549.068V202.077H566.489V209.176H549.068V218.901H567.98V226H540.457ZM586.963 226.497C584.643 226.497 582.542 225.901 580.659 224.707C578.79 223.501 577.305 221.731 576.205 219.398C575.117 217.051 574.574 214.174 574.574 210.767C574.574 207.267 575.137 204.357 576.264 202.037C577.391 199.704 578.889 197.96 580.759 196.807C582.641 195.64 584.703 195.057 586.943 195.057C588.653 195.057 590.079 195.348 591.219 195.932C592.372 196.502 593.3 197.218 594.003 198.08C594.719 198.928 595.262 199.763 595.634 200.585H595.892V185.273H604.344V226H595.992V221.108H595.634C595.236 221.956 594.672 222.798 593.943 223.634C593.227 224.455 592.293 225.138 591.139 225.682C589.999 226.225 588.607 226.497 586.963 226.497ZM589.648 219.756C591.013 219.756 592.167 219.384 593.108 218.642C594.063 217.886 594.792 216.832 595.295 215.48C595.813 214.128 596.071 212.544 596.071 210.727C596.071 208.911 595.819 207.333 595.315 205.994C594.812 204.655 594.082 203.621 593.128 202.892C592.173 202.163 591.013 201.798 589.648 201.798C588.256 201.798 587.082 202.176 586.128 202.932C585.173 203.687 584.451 204.735 583.96 206.074C583.47 207.413 583.224 208.964 583.224 210.727C583.224 212.504 583.47 214.075 583.96 215.44C584.464 216.793 585.187 217.853 586.128 218.622C587.082 219.378 588.256 219.756 589.648 219.756ZM612.429 226V195.455H620.901V226H612.429ZM616.685 191.517C615.425 191.517 614.345 191.099 613.443 190.264C612.555 189.416 612.111 188.402 612.111 187.222C612.111 186.055 612.555 185.054 613.443 184.219C614.345 183.37 615.425 182.946 616.685 182.946C617.944 182.946 619.018 183.37 619.906 184.219C620.808 185.054 621.259 186.055 621.259 187.222C621.259 188.402 620.808 189.416 619.906 190.264C619.018 191.099 617.944 191.517 616.685 191.517ZM645.054 195.455V201.818H626.659V195.455H645.054ZM630.835 188.136H639.307V216.614C639.307 217.396 639.426 218.006 639.665 218.443C639.903 218.867 640.235 219.166 640.659 219.338C641.097 219.51 641.6 219.597 642.17 219.597C642.568 219.597 642.966 219.563 643.364 219.497C643.761 219.418 644.066 219.358 644.278 219.318L645.611 225.622C645.187 225.755 644.59 225.907 643.821 226.08C643.052 226.265 642.117 226.378 641.017 226.418C638.975 226.497 637.186 226.225 635.648 225.602C634.123 224.979 632.937 224.011 632.088 222.699C631.24 221.386 630.822 219.729 630.835 217.727V188.136ZM651.692 226V195.455H660.164V226H651.692ZM655.948 191.517C654.689 191.517 653.608 191.099 652.707 190.264C651.818 189.416 651.374 188.402 651.374 187.222C651.374 186.055 651.818 185.054 652.707 184.219C653.608 183.37 654.689 182.946 655.948 182.946C657.208 182.946 658.281 183.37 659.17 184.219C660.071 185.054 660.522 186.055 660.522 187.222C660.522 188.402 660.071 189.416 659.17 190.264C658.281 191.099 657.208 191.517 655.948 191.517ZM681.871 226.597C678.782 226.597 676.111 225.94 673.857 224.628C671.617 223.302 669.887 221.459 668.667 219.099C667.447 216.726 666.837 213.975 666.837 210.847C666.837 207.691 667.447 204.934 668.667 202.574C669.887 200.201 671.617 198.358 673.857 197.045C676.111 195.72 678.782 195.057 681.871 195.057C684.96 195.057 687.625 195.72 689.866 197.045C692.119 198.358 693.856 200.201 695.076 202.574C696.296 204.934 696.905 207.691 696.905 210.847C696.905 213.975 696.296 216.726 695.076 219.099C693.856 221.459 692.119 223.302 689.866 224.628C687.625 225.94 684.96 226.597 681.871 226.597ZM681.911 220.034C683.316 220.034 684.49 219.636 685.431 218.841C686.372 218.032 687.082 216.932 687.559 215.54C688.049 214.148 688.295 212.563 688.295 210.787C688.295 209.01 688.049 207.426 687.559 206.034C687.082 204.642 686.372 203.542 685.431 202.733C684.49 201.924 683.316 201.52 681.911 201.52C680.493 201.52 679.299 201.924 678.332 202.733C677.377 203.542 676.655 204.642 676.164 206.034C675.687 207.426 675.448 209.01 675.448 210.787C675.448 212.563 675.687 214.148 676.164 215.54C676.655 216.932 677.377 218.032 678.332 218.841C679.299 219.636 680.493 220.034 681.911 220.034ZM712.006 208.341V226H703.534V195.455H711.608V200.844H711.966C712.642 199.067 713.775 197.662 715.366 196.628C716.957 195.58 718.886 195.057 721.153 195.057C723.275 195.057 725.124 195.521 726.702 196.449C728.279 197.377 729.506 198.703 730.381 200.426C731.256 202.136 731.693 204.178 731.693 206.551V226H723.221V208.062C723.235 206.193 722.757 204.735 721.79 203.688C720.822 202.627 719.489 202.097 717.792 202.097C716.652 202.097 715.645 202.342 714.77 202.832C713.908 203.323 713.232 204.039 712.741 204.98C712.264 205.908 712.019 207.028 712.006 208.341Z" fill="black"/>
<path d="M369.346 41H367.761C367.667 40.544 367.503 40.1435 367.269 39.7983C367.039 39.4531 366.757 39.1634 366.425 38.929C366.097 38.6903 365.733 38.5114 365.332 38.392C364.931 38.2727 364.514 38.2131 364.079 38.2131C363.287 38.2131 362.569 38.4134 361.925 38.8139C361.286 39.2145 360.777 39.8047 360.397 40.5845C360.022 41.3643 359.835 42.321 359.835 43.4545C359.835 44.5881 360.022 45.5447 360.397 46.3246C360.777 47.1044 361.286 47.6946 361.925 48.0952C362.569 48.4957 363.287 48.696 364.079 48.696C364.514 48.696 364.931 48.6364 365.332 48.517C365.733 48.3977 366.097 48.2209 366.425 47.9865C366.757 47.7479 367.039 47.456 367.269 47.1108C367.503 46.7614 367.667 46.3608 367.761 45.9091H369.346C369.227 46.5781 369.01 47.1768 368.694 47.7053C368.379 48.2337 367.987 48.6832 367.518 49.054C367.049 49.4205 366.523 49.6996 365.939 49.8913C365.36 50.0831 364.74 50.179 364.079 50.179C362.963 50.179 361.97 49.9062 361.1 49.3608C360.231 48.8153 359.547 48.0398 359.049 47.0341C358.55 46.0284 358.301 44.8352 358.301 43.4545C358.301 42.0739 358.55 40.8807 359.049 39.875C359.547 38.8693 360.231 38.0938 361.1 37.5483C361.97 37.0028 362.963 36.7301 364.079 36.7301C364.74 36.7301 365.36 36.826 365.939 37.0178C366.523 37.2095 367.049 37.4908 367.518 37.8615C367.987 38.228 368.379 38.6754 368.694 39.2038C369.01 39.728 369.227 40.3267 369.346 41ZM375.899 47.6989V39.2614H377.33V47.6989H375.899ZM372.396 44.196V42.7642H380.833V44.196H372.396ZM388.124 47.6989V39.2614H389.556V47.6989H388.124ZM384.621 44.196V42.7642H393.058V44.196H384.621Z" fill="black"/>
<circle cx="428.5" cy="43" r="3.5" fill="black"/>
<path d="M463.635 50V36.9091H468.059C469.086 36.9091 469.925 37.0945 470.577 37.4652C471.233 37.8317 471.719 38.3281 472.035 38.9545C472.35 39.581 472.508 40.2798 472.508 41.0511C472.508 41.8224 472.35 42.5234 472.035 43.1541C471.723 43.7848 471.242 44.2876 470.59 44.6626C469.938 45.0334 469.103 45.2188 468.084 45.2188H464.914V43.8125H468.033C468.736 43.8125 469.301 43.6911 469.727 43.4482C470.153 43.2053 470.462 42.8771 470.654 42.4638C470.85 42.0462 470.948 41.5753 470.948 41.0511C470.948 40.527 470.85 40.0582 470.654 39.6449C470.462 39.2315 470.151 38.9077 469.721 38.6733C469.29 38.4347 468.719 38.3153 468.008 38.3153H465.221V50H463.635ZM476.188 53.6818C475.933 53.6818 475.705 53.6605 475.504 53.6179C475.304 53.5795 475.166 53.5412 475.089 53.5028L475.472 52.1733C475.839 52.267 476.163 52.3011 476.444 52.2756C476.725 52.25 476.974 52.1243 477.192 51.8984C477.413 51.6768 477.616 51.3168 477.799 50.8182L478.08 50.0511L474.45 40.1818H476.086L478.796 48.0057H478.898L481.609 40.1818H483.245L479.077 51.4318C478.89 51.9389 478.658 52.3587 478.381 52.6911C478.104 53.0277 477.782 53.277 477.416 53.4389C477.053 53.6009 476.644 53.6818 476.188 53.6818ZM489.866 40.1818V41.4602H484.778V40.1818H489.866ZM486.261 37.8295H487.769V47.1875C487.769 47.6136 487.831 47.9332 487.955 48.1463C488.083 48.3551 488.245 48.4957 488.441 48.5682C488.641 48.6364 488.852 48.6705 489.073 48.6705C489.24 48.6705 489.376 48.6619 489.483 48.6449C489.589 48.6236 489.674 48.6065 489.738 48.5938L490.045 49.9489C489.943 49.9872 489.8 50.0256 489.617 50.0639C489.434 50.1065 489.201 50.1278 488.92 50.1278C488.494 50.1278 488.076 50.0362 487.667 49.853C487.262 49.6697 486.926 49.3906 486.657 49.0156C486.393 48.6406 486.261 48.1676 486.261 47.5966V37.8295ZM494.215 44.0938V50H492.706V36.9091H494.215V41.7159H494.343C494.573 41.2088 494.918 40.8061 495.378 40.5078C495.843 40.2053 496.46 40.054 497.232 40.054C497.901 40.054 498.487 40.1882 498.99 40.4567C499.492 40.7209 499.882 41.1278 500.159 41.6776C500.441 42.223 500.581 42.9176 500.581 43.7614V50H499.073V43.8636C499.073 43.0838 498.87 42.4808 498.465 42.0547C498.065 41.6243 497.509 41.4091 496.797 41.4091C496.303 41.4091 495.86 41.5135 495.468 41.7223C495.08 41.9311 494.773 42.2358 494.547 42.6364C494.326 43.0369 494.215 43.5227 494.215 44.0938ZM507.69 50.2045C506.803 50.2045 506.026 49.9936 505.356 49.5717C504.692 49.1499 504.172 48.5597 503.797 47.8011C503.426 47.0426 503.241 46.1562 503.241 45.142C503.241 44.1193 503.426 43.2266 503.797 42.4638C504.172 41.701 504.692 41.1087 505.356 40.6868C506.026 40.2649 506.803 40.054 507.69 40.054C508.576 40.054 509.352 40.2649 510.016 40.6868C510.685 41.1087 511.205 41.701 511.576 42.4638C511.951 43.2266 512.138 44.1193 512.138 45.142C512.138 46.1562 511.951 47.0426 511.576 47.8011C511.205 48.5597 510.685 49.1499 510.016 49.5717C509.352 49.9936 508.576 50.2045 507.69 50.2045ZM507.69 48.8494C508.363 48.8494 508.917 48.6768 509.352 48.3317C509.786 47.9865 510.108 47.5327 510.317 46.9702C510.526 46.4077 510.63 45.7983 510.63 45.142C510.63 44.4858 510.526 43.8743 510.317 43.3075C510.108 42.7408 509.786 42.2827 509.352 41.9332C508.917 41.5838 508.363 41.4091 507.69 41.4091C507.016 41.4091 506.462 41.5838 506.028 41.9332C505.593 42.2827 505.271 42.7408 505.062 43.3075C504.854 43.8743 504.749 44.4858 504.749 45.142C504.749 45.7983 504.854 46.4077 505.062 46.9702C505.271 47.5327 505.593 47.9865 506.028 48.3317C506.462 48.6768 507.016 48.8494 507.69 48.8494ZM516.31 44.0938V50H514.801V40.1818H516.259V41.7159H516.386C516.617 41.2173 516.966 40.8168 517.435 40.5142C517.903 40.2074 518.509 40.054 519.25 40.054C519.915 40.054 520.497 40.1903 520.995 40.4631C521.494 40.7315 521.881 41.1406 522.158 41.6903C522.435 42.2358 522.574 42.9261 522.574 43.7614V50H521.065V43.8636C521.065 43.0923 520.865 42.4915 520.465 42.0611C520.064 41.6264 519.514 41.4091 518.815 41.4091C518.334 41.4091 517.903 41.5135 517.524 41.7223C517.149 41.9311 516.853 42.2358 516.636 42.6364C516.418 43.0369 516.31 43.5227 516.31 44.0938Z" fill="black"/>
<circle cx="557.5" cy="43" r="3.5" fill="black"/>
<path d="M597.795 36.9091H599.38V46.267C599.38 47.1023 599.227 47.8118 598.92 48.3956C598.613 48.9794 598.181 49.4226 597.622 49.7251C597.064 50.0277 596.406 50.179 595.647 50.179C594.931 50.179 594.294 50.049 593.736 49.7891C593.178 49.5249 592.739 49.1499 592.419 48.6641C592.1 48.1783 591.94 47.6009 591.94 46.9318H593.499C593.499 47.3026 593.591 47.6264 593.774 47.9034C593.962 48.1761 594.218 48.3892 594.541 48.5426C594.865 48.696 595.234 48.7727 595.647 48.7727C596.103 48.7727 596.491 48.6768 596.811 48.4851C597.13 48.2933 597.373 48.0121 597.539 47.6413C597.71 47.2663 597.795 46.8082 597.795 46.267V36.9091ZM605.602 50.2301C604.98 50.2301 604.415 50.1129 603.908 49.8786C603.401 49.6399 602.998 49.2969 602.7 48.8494C602.401 48.3977 602.252 47.8523 602.252 47.2131C602.252 46.6506 602.363 46.1946 602.585 45.8452C602.806 45.4915 603.102 45.2145 603.473 45.0142C603.844 44.8139 604.253 44.6648 604.7 44.5668C605.152 44.4645 605.606 44.3835 606.062 44.3239C606.659 44.2472 607.142 44.1896 607.513 44.1513C607.888 44.1087 608.161 44.0384 608.331 43.9403C608.506 43.8423 608.593 43.6719 608.593 43.429V43.3778C608.593 42.7472 608.421 42.2571 608.075 41.9077C607.734 41.5582 607.217 41.3835 606.522 41.3835C605.802 41.3835 605.237 41.5412 604.828 41.8565C604.419 42.1719 604.132 42.5085 603.965 42.8665L602.534 42.3551C602.789 41.7585 603.13 41.294 603.556 40.9616C603.987 40.625 604.455 40.3906 604.962 40.2585C605.474 40.1222 605.977 40.054 606.471 40.054C606.786 40.054 607.149 40.0923 607.558 40.169C607.971 40.2415 608.369 40.3928 608.753 40.6229C609.141 40.853 609.462 41.2003 609.718 41.6648C609.974 42.1293 610.102 42.7514 610.102 43.5312V50H608.593V48.6705H608.516C608.414 48.8835 608.244 49.1115 608.005 49.3544C607.766 49.5973 607.449 49.804 607.053 49.9744C606.656 50.1449 606.173 50.2301 605.602 50.2301ZM605.832 48.875C606.428 48.875 606.931 48.7578 607.34 48.5234C607.754 48.2891 608.065 47.9865 608.274 47.6158C608.487 47.245 608.593 46.8551 608.593 46.446V45.0653C608.529 45.142 608.389 45.2124 608.171 45.2763C607.958 45.3359 607.711 45.3892 607.43 45.4361C607.153 45.4787 606.882 45.517 606.618 45.5511C606.358 45.581 606.147 45.6065 605.985 45.6278C605.593 45.679 605.227 45.7621 604.886 45.8771C604.549 45.9879 604.276 46.1562 604.068 46.3821C603.863 46.6037 603.761 46.9062 603.761 47.2898C603.761 47.8139 603.955 48.2102 604.342 48.4787C604.734 48.7429 605.231 48.875 605.832 48.875ZM620.892 40.1818L617.261 50H615.727L612.096 40.1818H613.733L616.443 48.0057H616.545L619.256 40.1818H620.892ZM625.833 50.2301C625.211 50.2301 624.647 50.1129 624.14 49.8786C623.632 49.6399 623.23 49.2969 622.931 48.8494C622.633 48.3977 622.484 47.8523 622.484 47.2131C622.484 46.6506 622.595 46.1946 622.816 45.8452C623.038 45.4915 623.334 45.2145 623.705 45.0142C624.076 44.8139 624.485 44.6648 624.932 44.5668C625.384 44.4645 625.838 44.3835 626.294 44.3239C626.89 44.2472 627.374 44.1896 627.745 44.1513C628.12 44.1087 628.392 44.0384 628.563 43.9403C628.738 43.8423 628.825 43.6719 628.825 43.429V43.3778C628.825 42.7472 628.652 42.2571 628.307 41.9077C627.966 41.5582 627.448 41.3835 626.754 41.3835C626.034 41.3835 625.469 41.5412 625.06 41.8565C624.651 42.1719 624.363 42.5085 624.197 42.8665L622.765 42.3551C623.021 41.7585 623.362 41.294 623.788 40.9616C624.218 40.625 624.687 40.3906 625.194 40.2585C625.706 40.1222 626.208 40.054 626.703 40.054C627.018 40.054 627.38 40.0923 627.789 40.169C628.203 40.2415 628.601 40.3928 628.985 40.6229C629.372 40.853 629.694 41.2003 629.95 41.6648C630.206 42.1293 630.333 42.7514 630.333 43.5312V50H628.825V48.6705H628.748C628.646 48.8835 628.475 49.1115 628.237 49.3544C627.998 49.5973 627.681 49.804 627.284 49.9744C626.888 50.1449 626.404 50.2301 625.833 50.2301ZM626.064 48.875C626.66 48.875 627.163 48.7578 627.572 48.5234C627.985 48.2891 628.296 47.9865 628.505 47.6158C628.718 47.245 628.825 46.8551 628.825 46.446V45.0653C628.761 45.142 628.62 45.2124 628.403 45.2763C628.19 45.3359 627.943 45.3892 627.662 45.4361C627.385 45.4787 627.114 45.517 626.85 45.5511C626.59 45.581 626.379 45.6065 626.217 45.6278C625.825 45.679 625.458 45.7621 625.117 45.8771C624.781 45.9879 624.508 46.1562 624.299 46.3821C624.095 46.6037 623.992 46.9062 623.992 47.2898C623.992 47.8139 624.186 48.2102 624.574 48.4787C624.966 48.7429 625.463 48.875 626.064 48.875ZM640.401 42.3807L639.046 42.7642C638.961 42.5384 638.835 42.3189 638.669 42.1058C638.507 41.8885 638.286 41.7095 638.004 41.5689C637.723 41.4283 637.363 41.358 636.924 41.358C636.323 41.358 635.822 41.4964 635.422 41.7734C635.026 42.0462 634.827 42.3935 634.827 42.8153C634.827 43.1903 634.964 43.4865 635.237 43.7038C635.509 43.9212 635.935 44.1023 636.515 44.2472L637.972 44.6051C638.85 44.8182 639.504 45.1442 639.935 45.5831C640.365 46.0178 640.58 46.5781 640.58 47.2642C640.58 47.8267 640.418 48.3295 640.095 48.7727C639.775 49.2159 639.327 49.5653 638.752 49.821C638.177 50.0767 637.508 50.2045 636.745 50.2045C635.744 50.2045 634.915 49.9872 634.259 49.5526C633.602 49.1179 633.187 48.483 633.012 47.6477L634.444 47.2898C634.58 47.8182 634.838 48.2145 635.217 48.4787C635.601 48.7429 636.102 48.875 636.72 48.875C637.423 48.875 637.981 48.7259 638.394 48.4276C638.812 48.125 639.021 47.7628 639.021 47.3409C639.021 47 638.901 46.7145 638.663 46.4844C638.424 46.25 638.058 46.0753 637.563 45.9602L635.927 45.5767C635.028 45.3636 634.367 45.0334 633.945 44.5859C633.528 44.1342 633.319 43.5696 633.319 42.892C633.319 42.3381 633.474 41.848 633.786 41.4219C634.101 40.9957 634.529 40.6612 635.07 40.4183C635.616 40.1754 636.234 40.054 636.924 40.054C637.896 40.054 638.658 40.267 639.212 40.6932C639.771 41.1193 640.167 41.6818 640.401 42.3807ZM647.2 50.2045C646.279 50.2045 645.487 49.9872 644.822 49.5526C644.157 49.1179 643.646 48.5192 643.288 47.7564C642.93 46.9936 642.751 46.1222 642.751 45.142C642.751 44.1449 642.934 43.2649 643.301 42.5021C643.671 41.7351 644.187 41.1364 644.847 40.706C645.512 40.2713 646.288 40.054 647.174 40.054C647.864 40.054 648.487 40.1818 649.041 40.4375C649.595 40.6932 650.048 41.0511 650.402 41.5114C650.756 41.9716 650.975 42.5085 651.061 43.1222H649.552C649.437 42.6747 649.181 42.2784 648.785 41.9332C648.393 41.5838 647.864 41.4091 647.2 41.4091C646.612 41.4091 646.096 41.5625 645.653 41.8693C645.214 42.1719 644.871 42.6001 644.624 43.1541C644.381 43.7038 644.259 44.3494 644.259 45.0909C644.259 45.8494 644.379 46.5099 644.617 47.0724C644.86 47.6349 645.201 48.0717 645.64 48.3828C646.083 48.6939 646.603 48.8494 647.2 48.8494C647.592 48.8494 647.948 48.7812 648.267 48.6449C648.587 48.5085 648.857 48.3125 649.079 48.0568C649.301 47.8011 649.458 47.4943 649.552 47.1364H651.061C650.975 47.7159 650.764 48.2379 650.428 48.7024C650.095 49.1626 649.654 49.5291 649.105 49.8018C648.559 50.0703 647.924 50.2045 647.2 50.2045ZM653.626 50V40.1818H655.083V41.6648H655.185C655.364 41.179 655.688 40.7848 656.157 40.4822C656.626 40.1797 657.154 40.0284 657.742 40.0284C657.853 40.0284 657.992 40.0305 658.158 40.0348C658.324 40.0391 658.45 40.0455 658.535 40.054V41.5881C658.484 41.5753 658.367 41.5561 658.183 41.5305C658.004 41.5007 657.815 41.4858 657.614 41.4858C657.137 41.4858 656.711 41.5859 656.336 41.7862C655.965 41.9822 655.671 42.255 655.454 42.6044C655.241 42.9496 655.134 43.3437 655.134 43.7869V50H653.626ZM660.683 50V40.1818H662.192V50H660.683ZM661.45 38.5455C661.156 38.5455 660.902 38.4453 660.689 38.245C660.481 38.0447 660.376 37.804 660.376 37.5227C660.376 37.2415 660.481 37.0007 660.689 36.8004C660.902 36.6001 661.156 36.5 661.45 36.5C661.744 36.5 661.996 36.6001 662.204 36.8004C662.417 37.0007 662.524 37.2415 662.524 37.5227C662.524 37.804 662.417 38.0447 662.204 38.245C661.996 38.4453 661.744 38.5455 661.45 38.5455ZM665.315 53.6818V40.1818H666.772V41.7415H666.951C667.062 41.571 667.215 41.3537 667.411 41.0895C667.611 40.821 667.897 40.5824 668.268 40.3736C668.643 40.1605 669.15 40.054 669.789 40.054C670.616 40.054 671.344 40.2607 671.975 40.674C672.606 41.0874 673.098 41.6733 673.452 42.4318C673.805 43.1903 673.982 44.0852 673.982 45.1165C673.982 46.1562 673.805 47.0575 673.452 47.8203C673.098 48.5788 672.608 49.1669 671.981 49.5845C671.355 49.9979 670.633 50.2045 669.815 50.2045C669.184 50.2045 668.679 50.1001 668.3 49.8913C667.92 49.6783 667.628 49.4375 667.424 49.169C667.219 48.8963 667.062 48.6705 666.951 48.4915H666.823V53.6818H665.315ZM666.797 45.0909C666.797 45.8324 666.906 46.4865 667.123 47.0533C667.341 47.6158 667.658 48.0568 668.076 48.3764C668.493 48.6918 669.005 48.8494 669.61 48.8494C670.241 48.8494 670.767 48.6832 671.189 48.3509C671.615 48.0142 671.935 47.5625 672.148 46.9957C672.365 46.4247 672.474 45.7898 672.474 45.0909C672.474 44.4006 672.367 43.7784 672.154 43.2244C671.945 42.6662 671.628 42.2251 671.202 41.9013C670.78 41.5732 670.249 41.4091 669.61 41.4091C668.996 41.4091 668.481 41.5646 668.063 41.8757C667.645 42.1825 667.33 42.6129 667.117 43.1669C666.904 43.7166 666.797 44.358 666.797 45.0909ZM680.913 40.1818V41.4602H675.825V40.1818H680.913ZM677.308 37.8295H678.817V47.1875C678.817 47.6136 678.878 47.9332 679.002 48.1463C679.13 48.3551 679.292 48.4957 679.488 48.5682C679.688 48.6364 679.899 48.6705 680.121 48.6705C680.287 48.6705 680.423 48.6619 680.53 48.6449C680.636 48.6236 680.721 48.6065 680.785 48.5938L681.092 49.9489C680.99 49.9872 680.847 50.0256 680.664 50.0639C680.481 50.1065 680.248 50.1278 679.967 50.1278C679.541 50.1278 679.123 50.0362 678.714 49.853C678.309 49.6697 677.973 49.3906 677.704 49.0156C677.44 48.6406 677.308 48.1676 677.308 47.5966V37.8295Z" fill="black"/>
<circle cx="715.5" cy="43" r="3.5" fill="black"/>
<path d="M750.337 38.3153V36.9091H760.155V38.3153H756.039V50H754.454V38.3153H750.337ZM762.604 53.6818C762.348 53.6818 762.12 53.6605 761.92 53.6179C761.72 53.5795 761.581 53.5412 761.505 53.5028L761.888 52.1733C762.255 52.267 762.578 52.3011 762.86 52.2756C763.141 52.25 763.39 52.1243 763.608 51.8984C763.829 51.6768 764.032 51.3168 764.215 50.8182L764.496 50.0511L760.865 40.1818H762.502L765.212 48.0057H765.314L768.024 40.1818H769.661L765.493 51.4318C765.306 51.9389 765.073 52.3587 764.796 52.6911C764.519 53.0277 764.198 53.277 763.831 53.4389C763.469 53.6009 763.06 53.6818 762.604 53.6818ZM772.012 53.6818V40.1818H773.469V41.7415H773.648C773.759 41.571 773.913 41.3537 774.109 41.0895C774.309 40.821 774.594 40.5824 774.965 40.3736C775.34 40.1605 775.847 40.054 776.486 40.054C777.313 40.054 778.042 40.2607 778.672 40.674C779.303 41.0874 779.795 41.6733 780.149 42.4318C780.503 43.1903 780.68 44.0852 780.68 45.1165C780.68 46.1562 780.503 47.0575 780.149 47.8203C779.795 48.5788 779.305 49.1669 778.679 49.5845C778.052 49.9979 777.33 50.2045 776.512 50.2045C775.881 50.2045 775.376 50.1001 774.997 49.8913C774.618 49.6783 774.326 49.4375 774.121 49.169C773.917 48.8963 773.759 48.6705 773.648 48.4915H773.52V53.6818H772.012ZM773.495 45.0909C773.495 45.8324 773.604 46.4865 773.821 47.0533C774.038 47.6158 774.356 48.0568 774.773 48.3764C775.191 48.6918 775.702 48.8494 776.307 48.8494C776.938 48.8494 777.464 48.6832 777.886 48.3509C778.312 48.0142 778.632 47.5625 778.845 46.9957C779.062 46.4247 779.171 45.7898 779.171 45.0909C779.171 44.4006 779.064 43.7784 778.851 43.2244C778.643 42.6662 778.325 42.2251 777.899 41.9013C777.477 41.5732 776.947 41.4091 776.307 41.4091C775.694 41.4091 775.178 41.5646 774.761 41.8757C774.343 42.1825 774.028 42.6129 773.814 43.1669C773.601 43.7166 773.495 44.358 773.495 45.0909ZM787.457 50.2045C786.511 50.2045 785.695 49.9957 785.009 49.5781C784.327 49.1562 783.801 48.5682 783.43 47.8139C783.064 47.0554 782.88 46.1733 782.88 45.1676C782.88 44.1619 783.064 43.2756 783.43 42.5085C783.801 41.7372 784.317 41.1364 784.977 40.706C785.642 40.2713 786.417 40.054 787.304 40.054C787.815 40.054 788.32 40.1392 788.819 40.3097C789.317 40.4801 789.771 40.7571 790.18 41.1406C790.589 41.5199 790.915 42.0227 791.158 42.6491C791.401 43.2756 791.523 44.0469 791.523 44.9631V45.6023H783.954V44.2983H789.988C789.988 43.7443 789.878 43.25 789.656 42.8153C789.439 42.3807 789.128 42.0376 788.723 41.7862C788.322 41.5348 787.849 41.4091 787.304 41.4091C786.703 41.4091 786.183 41.5582 785.744 41.8565C785.309 42.1506 784.975 42.5341 784.741 43.0071C784.506 43.4801 784.389 43.9872 784.389 44.5284V45.3977C784.389 46.1392 784.517 46.7678 784.773 47.2834C785.032 47.7947 785.393 48.1847 785.853 48.4531C786.313 48.7173 786.848 48.8494 787.457 48.8494C787.853 48.8494 788.211 48.794 788.531 48.6832C788.855 48.5682 789.134 48.3977 789.368 48.1719C789.603 47.9418 789.784 47.6562 789.912 47.3153L791.369 47.7244C791.216 48.2188 790.958 48.6534 790.596 49.0284C790.233 49.3991 789.786 49.6889 789.253 49.8977C788.721 50.1023 788.122 50.2045 787.457 50.2045ZM801.132 42.3807L799.777 42.7642C799.691 42.5384 799.566 42.3189 799.4 42.1058C799.238 41.8885 799.016 41.7095 798.735 41.5689C798.454 41.4283 798.093 41.358 797.655 41.358C797.054 41.358 796.553 41.4964 796.152 41.7734C795.756 42.0462 795.558 42.3935 795.558 42.8153C795.558 43.1903 795.694 43.4865 795.967 43.7038C796.24 43.9212 796.666 44.1023 797.245 44.2472L798.703 44.6051C799.581 44.8182 800.235 45.1442 800.665 45.5831C801.096 46.0178 801.311 46.5781 801.311 47.2642C801.311 47.8267 801.149 48.3295 800.825 48.7727C800.505 49.2159 800.058 49.5653 799.483 49.821C798.907 50.0767 798.238 50.2045 797.476 50.2045C796.474 50.2045 795.645 49.9872 794.989 49.5526C794.333 49.1179 793.917 48.483 793.743 47.6477L795.174 47.2898C795.311 47.8182 795.569 48.2145 795.948 48.4787C796.331 48.7429 796.832 48.875 797.45 48.875C798.153 48.875 798.711 48.7259 799.125 48.4276C799.542 48.125 799.751 47.7628 799.751 47.3409C799.751 47 799.632 46.7145 799.393 46.4844C799.155 46.25 798.788 46.0753 798.294 45.9602L796.657 45.5767C795.758 45.3636 795.098 45.0334 794.676 44.5859C794.258 44.1342 794.049 43.5696 794.049 42.892C794.049 42.3381 794.205 41.848 794.516 41.4219C794.831 40.9957 795.26 40.6612 795.801 40.4183C796.346 40.1754 796.964 40.054 797.655 40.054C798.626 40.054 799.389 40.267 799.943 40.6932C800.501 41.1193 800.897 41.6818 801.132 42.3807ZM807.93 50.2045C807.01 50.2045 806.217 49.9872 805.552 49.5526C804.888 49.1179 804.376 48.5192 804.018 47.7564C803.66 46.9936 803.481 46.1222 803.481 45.142C803.481 44.1449 803.665 43.2649 804.031 42.5021C804.402 41.7351 804.917 41.1364 805.578 40.706C806.243 40.2713 807.018 40.054 807.905 40.054C808.595 40.054 809.217 40.1818 809.771 40.4375C810.325 40.6932 810.779 41.0511 811.133 41.5114C811.486 41.9716 811.706 42.5085 811.791 43.1222H810.282C810.167 42.6747 809.912 42.2784 809.515 41.9332C809.123 41.5838 808.595 41.4091 807.93 41.4091C807.342 41.4091 806.826 41.5625 806.383 41.8693C805.944 42.1719 805.601 42.6001 805.354 43.1541C805.111 43.7038 804.99 44.3494 804.99 45.0909C804.99 45.8494 805.109 46.5099 805.348 47.0724C805.591 47.6349 805.932 48.0717 806.371 48.3828C806.814 48.6939 807.334 48.8494 807.93 48.8494C808.322 48.8494 808.678 48.7812 808.998 48.6449C809.317 48.5085 809.588 48.3125 809.809 48.0568C810.031 47.8011 810.189 47.4943 810.282 47.1364H811.791C811.706 47.7159 811.495 48.2379 811.158 48.7024C810.826 49.1626 810.385 49.5291 809.835 49.8018C809.29 50.0703 808.655 50.2045 807.93 50.2045ZM814.356 50V40.1818H815.814V41.6648H815.916C816.095 41.179 816.419 40.7848 816.887 40.4822C817.356 40.1797 817.885 40.0284 818.473 40.0284C818.584 40.0284 818.722 40.0305 818.888 40.0348C819.054 40.0391 819.18 40.0455 819.265 40.054V41.5881C819.214 41.5753 819.097 41.5561 818.914 41.5305C818.735 41.5007 818.545 41.4858 818.345 41.4858C817.868 41.4858 817.441 41.5859 817.066 41.7862C816.696 41.9822 816.402 42.255 816.184 42.6044C815.971 42.9496 815.865 43.3437 815.865 43.7869V50H814.356ZM821.413 50V40.1818H822.922V50H821.413ZM822.181 38.5455C821.886 38.5455 821.633 38.4453 821.42 38.245C821.211 38.0447 821.107 37.804 821.107 37.5227C821.107 37.2415 821.211 37.0007 821.42 36.8004C821.633 36.6001 821.886 36.5 822.181 36.5C822.475 36.5 822.726 36.6001 822.935 36.8004C823.148 37.0007 823.254 37.2415 823.254 37.5227C823.254 37.804 823.148 38.0447 822.935 38.245C822.726 38.4453 822.475 38.5455 822.181 38.5455ZM826.045 53.6818V40.1818H827.502V41.7415H827.681C827.792 41.571 827.946 41.3537 828.142 41.0895C828.342 40.821 828.627 40.5824 828.998 40.3736C829.373 40.1605 829.88 40.054 830.519 40.054C831.346 40.054 832.075 40.2607 832.705 40.674C833.336 41.0874 833.828 41.6733 834.182 42.4318C834.536 43.1903 834.713 44.0852 834.713 45.1165C834.713 46.1562 834.536 47.0575 834.182 47.8203C833.828 48.5788 833.338 49.1669 832.712 49.5845C832.085 49.9979 831.363 50.2045 830.545 50.2045C829.914 50.2045 829.409 50.1001 829.03 49.8913C828.651 49.6783 828.359 49.4375 828.154 49.169C827.95 48.8963 827.792 48.6705 827.681 48.4915H827.553V53.6818H826.045ZM827.528 45.0909C827.528 45.8324 827.637 46.4865 827.854 47.0533C828.071 47.6158 828.389 48.0568 828.806 48.3764C829.224 48.6918 829.735 48.8494 830.34 48.8494C830.971 48.8494 831.497 48.6832 831.919 48.3509C832.345 48.0142 832.665 47.5625 832.878 46.9957C833.095 46.4247 833.204 45.7898 833.204 45.0909C833.204 44.4006 833.098 43.7784 832.884 43.2244C832.676 42.6662 832.358 42.2251 831.932 41.9013C831.51 41.5732 830.98 41.4091 830.34 41.4091C829.727 41.4091 829.211 41.5646 828.794 41.8757C828.376 42.1825 828.061 42.6129 827.848 43.1669C827.634 43.7166 827.528 44.358 827.528 45.0909ZM841.644 40.1818V41.4602H836.556V40.1818H841.644ZM838.038 37.8295H839.547V47.1875C839.547 47.6136 839.609 47.9332 839.732 48.1463C839.86 48.3551 840.022 48.4957 840.218 48.5682C840.418 48.6364 840.629 48.6705 840.851 48.6705C841.017 48.6705 841.154 48.6619 841.26 48.6449C841.367 48.6236 841.452 48.6065 841.516 48.5938L841.823 49.9489C841.72 49.9872 841.578 50.0256 841.394 50.0639C841.211 50.1065 840.979 50.1278 840.698 50.1278C840.271 50.1278 839.854 50.0362 839.445 49.853C839.04 49.6697 838.703 49.3906 838.435 49.0156C838.171 48.6406 838.038 48.1676 838.038 47.5966V37.8295Z" fill="black"/>
<rect x="493" y="260" width="238" height="52" rx="8" fill="white"/>
<path d="M521.029 284.492H518.229C518.178 284.13 518.074 283.808 517.916 283.527C517.758 283.241 517.556 282.999 517.309 282.798C517.062 282.598 516.776 282.445 516.452 282.338C516.133 282.232 515.785 282.178 515.41 282.178C514.733 282.178 514.143 282.347 513.64 282.683C513.137 283.016 512.747 283.501 512.47 284.141C512.193 284.776 512.055 285.547 512.055 286.455C512.055 287.388 512.193 288.172 512.47 288.807C512.751 289.442 513.143 289.921 513.646 290.245C514.149 290.569 514.731 290.731 515.391 290.731C515.762 290.731 516.105 290.682 516.42 290.584C516.74 290.486 517.023 290.343 517.27 290.156C517.518 289.964 517.722 289.732 517.884 289.459C518.05 289.186 518.165 288.875 518.229 288.526L521.029 288.538C520.957 289.139 520.775 289.719 520.486 290.277C520.2 290.831 519.814 291.327 519.329 291.766C518.847 292.201 518.272 292.546 517.603 292.802C516.938 293.053 516.186 293.179 515.346 293.179C514.179 293.179 513.135 292.915 512.214 292.386C511.298 291.858 510.574 291.093 510.041 290.092C509.513 289.09 509.248 287.878 509.248 286.455C509.248 285.027 509.517 283.812 510.054 282.811C510.591 281.81 511.319 281.047 512.24 280.523C513.16 279.994 514.196 279.73 515.346 279.73C516.105 279.73 516.808 279.837 517.456 280.05C518.108 280.263 518.685 280.574 519.188 280.983C519.691 281.388 520.1 281.884 520.415 282.472C520.735 283.06 520.939 283.734 521.029 284.492ZM526.046 287.324V293H523.323V279.909H525.969V284.914H526.084C526.306 284.335 526.663 283.881 527.158 283.553C527.652 283.22 528.272 283.054 529.018 283.054C529.7 283.054 530.294 283.203 530.801 283.501C531.313 283.795 531.709 284.219 531.99 284.773C532.276 285.323 532.416 285.982 532.412 286.749V293H529.689V287.234C529.693 286.629 529.54 286.158 529.229 285.822C528.922 285.485 528.492 285.317 527.938 285.317C527.567 285.317 527.239 285.396 526.953 285.553C526.672 285.711 526.45 285.941 526.288 286.244C526.131 286.542 526.05 286.902 526.046 287.324ZM539.389 293.192C538.379 293.192 537.51 292.987 536.781 292.578C536.057 292.165 535.499 291.581 535.107 290.827C534.715 290.068 534.519 289.171 534.519 288.136C534.519 287.126 534.715 286.239 535.107 285.477C535.499 284.714 536.051 284.119 536.762 283.693C537.478 283.267 538.318 283.054 539.281 283.054C539.928 283.054 540.531 283.158 541.09 283.367C541.652 283.572 542.142 283.881 542.56 284.294C542.982 284.707 543.31 285.227 543.544 285.854C543.779 286.476 543.896 287.205 543.896 288.04V288.788H535.605V287.1H541.333C541.333 286.708 541.247 286.361 541.077 286.058C540.906 285.756 540.67 285.519 540.367 285.349C540.069 285.174 539.722 285.087 539.325 285.087C538.912 285.087 538.546 285.183 538.226 285.374C537.911 285.562 537.664 285.815 537.485 286.135C537.306 286.45 537.214 286.802 537.21 287.19V288.794C537.21 289.28 537.299 289.7 537.478 290.053C537.661 290.407 537.919 290.68 538.252 290.871C538.584 291.063 538.978 291.159 539.434 291.159C539.737 291.159 540.014 291.116 540.265 291.031C540.517 290.946 540.732 290.818 540.911 290.648C541.09 290.477 541.226 290.268 541.32 290.021L543.838 290.188C543.71 290.793 543.448 291.321 543.052 291.773C542.66 292.22 542.153 292.57 541.531 292.821C540.913 293.068 540.199 293.192 539.389 293.192ZM550.469 293.192C549.463 293.192 548.598 292.979 547.874 292.553C547.154 292.122 546.6 291.526 546.212 290.763C545.828 290 545.636 289.122 545.636 288.129C545.636 287.124 545.83 286.241 546.218 285.483C546.61 284.72 547.166 284.126 547.886 283.7C548.607 283.269 549.463 283.054 550.456 283.054C551.313 283.054 552.063 283.21 552.706 283.521C553.35 283.832 553.859 284.268 554.234 284.831C554.609 285.393 554.815 286.054 554.854 286.812H552.284C552.212 286.322 552.02 285.928 551.709 285.63C551.402 285.327 550.999 285.176 550.501 285.176C550.079 285.176 549.71 285.291 549.395 285.521C549.084 285.747 548.841 286.077 548.666 286.512C548.492 286.947 548.404 287.473 548.404 288.091C548.404 288.717 548.489 289.25 548.66 289.689C548.835 290.128 549.08 290.462 549.395 290.692C549.71 290.923 550.079 291.038 550.501 291.038C550.812 291.038 551.091 290.974 551.338 290.846C551.59 290.718 551.796 290.533 551.958 290.29C552.124 290.043 552.233 289.746 552.284 289.401H554.854C554.811 290.151 554.607 290.812 554.24 291.383C553.878 291.95 553.377 292.393 552.738 292.712C552.099 293.032 551.342 293.192 550.469 293.192ZM559.425 290.175L559.431 286.908H559.827L562.972 283.182H566.098L561.873 288.116H561.227L559.425 290.175ZM556.957 293V279.909H559.68V293H556.957ZM563.094 293L560.204 288.724L562.02 286.8L566.283 293H563.094ZM571.826 293.192C570.833 293.192 569.974 292.981 569.25 292.559C568.529 292.133 567.973 291.54 567.581 290.782C567.189 290.019 566.993 289.135 566.993 288.129C566.993 287.115 567.189 286.229 567.581 285.47C567.973 284.707 568.529 284.115 569.25 283.693C569.974 283.267 570.833 283.054 571.826 283.054C572.818 283.054 573.675 283.267 574.395 283.693C575.12 284.115 575.678 284.707 576.07 285.47C576.462 286.229 576.658 287.115 576.658 288.129C576.658 289.135 576.462 290.019 576.07 290.782C575.678 291.54 575.12 292.133 574.395 292.559C573.675 292.981 572.818 293.192 571.826 293.192ZM571.838 291.082C572.29 291.082 572.667 290.955 572.97 290.699C573.272 290.439 573.5 290.085 573.654 289.638C573.811 289.19 573.89 288.681 573.89 288.11C573.89 287.539 573.811 287.03 573.654 286.582C573.5 286.135 573.272 285.781 572.97 285.521C572.667 285.261 572.29 285.131 571.838 285.131C571.382 285.131 570.999 285.261 570.688 285.521C570.381 285.781 570.149 286.135 569.991 286.582C569.838 287.03 569.761 287.539 569.761 288.11C569.761 288.681 569.838 289.19 569.991 289.638C570.149 290.085 570.381 290.439 570.688 290.699C570.999 290.955 571.382 291.082 571.838 291.082ZM585.085 288.82V283.182H587.808V293H585.193V291.217H585.091C584.87 291.792 584.501 292.254 583.985 292.604C583.474 292.953 582.85 293.128 582.112 293.128C581.456 293.128 580.879 292.979 580.38 292.68C579.882 292.382 579.492 291.958 579.21 291.408C578.933 290.859 578.793 290.2 578.789 289.433V283.182H581.512V288.947C581.516 289.527 581.671 289.985 581.978 290.322C582.285 290.658 582.696 290.827 583.212 290.827C583.54 290.827 583.847 290.752 584.132 290.603C584.418 290.45 584.648 290.224 584.823 289.925C585.002 289.627 585.089 289.259 585.085 288.82ZM595.568 283.182V285.227H589.655V283.182H595.568ZM590.998 280.83H593.721V289.983C593.721 290.234 593.759 290.43 593.836 290.571C593.913 290.707 594.019 290.803 594.155 290.859C594.296 290.914 594.458 290.942 594.641 290.942C594.769 290.942 594.897 290.931 595.025 290.91C595.153 290.884 595.251 290.865 595.319 290.852L595.747 292.879C595.611 292.921 595.419 292.97 595.172 293.026C594.925 293.085 594.624 293.121 594.271 293.134C593.614 293.16 593.039 293.072 592.545 292.872C592.055 292.672 591.673 292.361 591.401 291.939C591.128 291.517 590.994 290.984 590.998 290.341V280.83ZM614.309 286.455C614.309 287.882 614.038 289.097 613.497 290.098C612.96 291.099 612.227 291.864 611.298 292.393C610.374 292.917 609.334 293.179 608.179 293.179C607.016 293.179 605.972 292.915 605.047 292.386C604.122 291.858 603.391 291.093 602.854 290.092C602.317 289.09 602.049 287.878 602.049 286.455C602.049 285.027 602.317 283.812 602.854 282.811C603.391 281.81 604.122 281.047 605.047 280.523C605.972 279.994 607.016 279.73 608.179 279.73C609.334 279.73 610.374 279.994 611.298 280.523C612.227 281.047 612.96 281.81 613.497 282.811C614.038 283.812 614.309 285.027 614.309 286.455ZM611.503 286.455C611.503 285.53 611.364 284.75 611.087 284.115C610.815 283.48 610.429 282.999 609.93 282.67C609.432 282.342 608.848 282.178 608.179 282.178C607.51 282.178 606.926 282.342 606.428 282.67C605.929 282.999 605.541 283.48 605.264 284.115C604.991 284.75 604.855 285.53 604.855 286.455C604.855 287.379 604.991 288.159 605.264 288.794C605.541 289.429 605.929 289.911 606.428 290.239C606.926 290.567 607.51 290.731 608.179 290.731C608.848 290.731 609.432 290.567 609.93 290.239C610.429 289.911 610.815 289.429 611.087 288.794C611.364 288.159 611.503 287.379 611.503 286.455ZM622.964 288.82V283.182H625.687V293H623.073V291.217H622.971C622.749 291.792 622.38 292.254 621.865 292.604C621.353 292.953 620.729 293.128 619.992 293.128C619.336 293.128 618.758 292.979 618.26 292.68C617.761 292.382 617.371 291.958 617.09 291.408C616.813 290.859 616.672 290.2 616.668 289.433V283.182H619.391V288.947C619.395 289.527 619.551 289.985 619.858 290.322C620.164 290.658 620.576 290.827 621.091 290.827C621.419 290.827 621.726 290.752 622.012 290.603C622.297 290.45 622.527 290.224 622.702 289.925C622.881 289.627 622.968 289.259 622.964 288.82ZM628.225 293V283.182H630.865V284.895H630.967C631.146 284.286 631.447 283.825 631.869 283.514C632.291 283.199 632.776 283.041 633.326 283.041C633.462 283.041 633.61 283.05 633.767 283.067C633.925 283.084 634.063 283.107 634.183 283.137V285.553C634.055 285.515 633.878 285.481 633.652 285.451C633.426 285.421 633.22 285.406 633.032 285.406C632.632 285.406 632.274 285.494 631.958 285.668C631.647 285.839 631.4 286.077 631.217 286.384C631.038 286.691 630.948 287.045 630.948 287.445V293H628.225ZM652.078 284.492H649.278C649.227 284.13 649.123 283.808 648.965 283.527C648.807 283.241 648.605 282.999 648.358 282.798C648.111 282.598 647.825 282.445 647.501 282.338C647.182 282.232 646.834 282.178 646.459 282.178C645.782 282.178 645.192 282.347 644.689 282.683C644.186 283.016 643.796 283.501 643.519 284.141C643.242 284.776 643.104 285.547 643.104 286.455C643.104 287.388 643.242 288.172 643.519 288.807C643.8 289.442 644.192 289.921 644.695 290.245C645.198 290.569 645.78 290.731 646.44 290.731C646.811 290.731 647.154 290.682 647.469 290.584C647.789 290.486 648.072 290.343 648.32 290.156C648.567 289.964 648.771 289.732 648.933 289.459C649.099 289.186 649.214 288.875 649.278 288.526L652.078 288.538C652.006 289.139 651.825 289.719 651.535 290.277C651.249 290.831 650.864 291.327 650.378 291.766C649.896 292.201 649.321 292.546 648.652 292.802C647.987 293.053 647.235 293.179 646.396 293.179C645.228 293.179 644.184 292.915 643.263 292.386C642.347 291.858 641.623 291.093 641.09 290.092C640.562 289.09 640.298 287.878 640.298 286.455C640.298 285.027 640.566 283.812 641.103 282.811C641.64 281.81 642.369 281.047 643.289 280.523C644.209 279.994 645.245 279.73 646.396 279.73C647.154 279.73 647.857 279.837 648.505 280.05C649.157 280.263 649.734 280.574 650.237 280.983C650.74 281.388 651.149 281.884 651.464 282.472C651.784 283.06 651.989 283.734 652.078 284.492ZM658.808 293.192C657.815 293.192 656.956 292.981 656.232 292.559C655.512 292.133 654.955 291.54 654.563 290.782C654.171 290.019 653.975 289.135 653.975 288.129C653.975 287.115 654.171 286.229 654.563 285.47C654.955 284.707 655.512 284.115 656.232 283.693C656.956 283.267 657.815 283.054 658.808 283.054C659.801 283.054 660.657 283.267 661.377 283.693C662.102 284.115 662.66 284.707 663.052 285.47C663.444 286.229 663.64 287.115 663.64 288.129C663.64 289.135 663.444 290.019 663.052 290.782C662.66 291.54 662.102 292.133 661.377 292.559C660.657 292.981 659.801 293.192 658.808 293.192ZM658.821 291.082C659.272 291.082 659.649 290.955 659.952 290.699C660.254 290.439 660.482 290.085 660.636 289.638C660.794 289.19 660.872 288.681 660.872 288.11C660.872 287.539 660.794 287.03 660.636 286.582C660.482 286.135 660.254 285.781 659.952 285.521C659.649 285.261 659.272 285.131 658.821 285.131C658.365 285.131 657.981 285.261 657.67 285.521C657.363 285.781 657.131 286.135 656.973 286.582C656.82 287.03 656.743 287.539 656.743 288.11C656.743 288.681 656.82 289.19 656.973 289.638C657.131 290.085 657.363 290.439 657.67 290.699C657.981 290.955 658.365 291.082 658.821 291.082ZM672.067 288.82V283.182H674.79V293H672.176V291.217H672.073C671.852 291.792 671.483 292.254 670.967 292.604C670.456 292.953 669.832 293.128 669.095 293.128C668.438 293.128 667.861 292.979 667.362 292.68C666.864 292.382 666.474 291.958 666.193 291.408C665.916 290.859 665.775 290.2 665.771 289.433V283.182H668.494V288.947C668.498 289.527 668.654 289.985 668.96 290.322C669.267 290.658 669.678 290.827 670.194 290.827C670.522 290.827 670.829 290.752 671.114 290.603C671.4 290.45 671.63 290.224 671.805 289.925C671.984 289.627 672.071 289.259 672.067 288.82ZM677.328 293V283.182H679.968V284.895H680.07C680.249 284.286 680.55 283.825 680.971 283.514C681.393 283.199 681.879 283.041 682.429 283.041C682.565 283.041 682.712 283.05 682.87 283.067C683.028 283.084 683.166 283.107 683.285 283.137V285.553C683.158 285.515 682.981 285.481 682.755 285.451C682.529 285.421 682.322 285.406 682.135 285.406C681.734 285.406 681.376 285.494 681.061 285.668C680.75 285.839 680.503 286.077 680.319 286.384C680.141 286.691 680.051 287.045 680.051 287.445V293H677.328ZM693.222 285.982L690.729 286.135C690.687 285.922 690.595 285.73 690.455 285.56C690.314 285.385 690.129 285.246 689.898 285.144C689.673 285.038 689.402 284.984 689.087 284.984C688.665 284.984 688.309 285.074 688.019 285.253C687.729 285.428 687.584 285.662 687.584 285.956C687.584 286.19 687.678 286.388 687.866 286.55C688.053 286.712 688.375 286.842 688.831 286.94L690.608 287.298C691.562 287.494 692.274 287.81 692.743 288.244C693.212 288.679 693.446 289.25 693.446 289.957C693.446 290.601 693.256 291.165 692.877 291.651C692.502 292.137 691.986 292.516 691.33 292.789C690.678 293.058 689.926 293.192 689.074 293.192C687.774 293.192 686.739 292.921 685.967 292.38C685.2 291.835 684.751 291.093 684.619 290.156L687.297 290.015C687.378 290.411 687.574 290.714 687.885 290.923C688.196 291.127 688.594 291.229 689.08 291.229C689.558 291.229 689.941 291.138 690.231 290.955C690.525 290.767 690.674 290.526 690.678 290.232C690.674 289.985 690.57 289.783 690.365 289.625C690.16 289.463 689.845 289.339 689.419 289.254L687.719 288.915C686.76 288.724 686.046 288.391 685.577 287.918C685.113 287.445 684.881 286.842 684.881 286.109C684.881 285.479 685.051 284.935 685.392 284.479C685.737 284.023 686.221 283.672 686.843 283.425C687.469 283.178 688.202 283.054 689.042 283.054C690.282 283.054 691.258 283.316 691.969 283.84C692.685 284.364 693.103 285.078 693.222 285.982ZM699.995 293.192C698.985 293.192 698.116 292.987 697.387 292.578C696.663 292.165 696.104 291.581 695.712 290.827C695.32 290.068 695.124 289.171 695.124 288.136C695.124 287.126 695.32 286.239 695.712 285.477C696.104 284.714 696.656 284.119 697.368 283.693C698.084 283.267 698.923 283.054 699.886 283.054C700.534 283.054 701.137 283.158 701.695 283.367C702.258 283.572 702.748 283.881 703.166 284.294C703.587 284.707 703.916 285.227 704.15 285.854C704.384 286.476 704.501 287.205 704.501 288.04V288.788H696.211V287.1H701.938C701.938 286.708 701.853 286.361 701.683 286.058C701.512 285.756 701.276 285.519 700.973 285.349C700.675 285.174 700.327 285.087 699.931 285.087C699.518 285.087 699.151 285.183 698.832 285.374C698.516 285.562 698.269 285.815 698.09 286.135C697.911 286.45 697.82 286.802 697.815 287.19V288.794C697.815 289.28 697.905 289.7 698.084 290.053C698.267 290.407 698.525 290.68 698.857 290.871C699.19 291.063 699.584 291.159 700.04 291.159C700.342 291.159 700.619 291.116 700.871 291.031C701.122 290.946 701.337 290.818 701.516 290.648C701.695 290.477 701.832 290.268 701.925 290.021L704.444 290.188C704.316 290.793 704.054 291.321 703.658 291.773C703.266 292.22 702.759 292.57 702.136 292.821C701.519 293.068 700.805 293.192 699.995 293.192ZM714.808 285.982L712.315 286.135C712.272 285.922 712.18 285.73 712.04 285.56C711.899 285.385 711.714 285.246 711.484 285.144C711.258 285.038 710.987 284.984 710.672 284.984C710.25 284.984 709.894 285.074 709.604 285.253C709.315 285.428 709.17 285.662 709.17 285.956C709.17 286.19 709.263 286.388 709.451 286.55C709.638 286.712 709.96 286.842 710.416 286.94L712.193 287.298C713.148 287.494 713.859 287.81 714.328 288.244C714.797 288.679 715.031 289.25 715.031 289.957C715.031 290.601 714.842 291.165 714.462 291.651C714.087 292.137 713.572 292.516 712.915 292.789C712.263 293.058 711.511 293.192 710.659 293.192C709.359 293.192 708.324 292.921 707.553 292.38C706.785 291.835 706.336 291.093 706.204 290.156L708.882 290.015C708.963 290.411 709.159 290.714 709.47 290.923C709.781 291.127 710.18 291.229 710.665 291.229C711.143 291.229 711.526 291.138 711.816 290.955C712.11 290.767 712.259 290.526 712.263 290.232C712.259 289.985 712.155 289.783 711.95 289.625C711.746 289.463 711.43 289.339 711.004 289.254L709.304 288.915C708.345 288.724 707.631 288.391 707.163 287.918C706.698 287.445 706.466 286.842 706.466 286.109C706.466 285.479 706.636 284.935 706.977 284.479C707.322 284.023 707.806 283.672 708.428 283.425C709.055 283.178 709.788 283.054 710.627 283.054C711.867 283.054 712.843 283.316 713.555 283.84C714.271 284.364 714.688 285.078 714.808 285.982Z" fill="black"/>
</g>
<defs>
<clipPath id="clip0_3_6">
<rect width="1200" height="344" fill="white"/>
</clipPath>
</defs>
</svg>
