<svg width="100" height="100" viewBox="0 0 100 100" fill="none" xmlns="http://www.w3.org/2000/svg">
<path d="M90.7425 89.7144H88.2153C87.5949 89.7144 87.092 89.2115 87.092 88.5911C87.092 87.9708 87.595 87.4678 88.2153 87.4678H90.7425C91.363 87.4678 91.8659 87.9707 91.8659 88.5911C91.8659 89.2116 91.363 89.7144 90.7425 89.7144Z" fill="black"/>
<path d="M83.2498 89.7144H76.9542C76.3338 89.7144 75.8309 89.2115 75.8309 88.5911C75.8309 87.9708 76.3339 87.4678 76.9542 87.4678H83.2498C83.8702 87.4678 84.3731 87.9707 84.3731 88.5911C84.3731 89.2116 83.8702 89.7144 83.2498 89.7144Z" fill="black"/>
<path d="M72.3437 89.7144H16.5704C15.95 89.7144 15.447 89.2115 15.447 88.5911C15.447 87.9708 15.95 87.4678 16.5704 87.4678H72.3437C72.9642 87.4678 73.4671 87.9707 73.4671 88.5911C73.4671 89.2116 72.9642 89.7144 72.3437 89.7144Z" fill="black"/>
<path d="M11.3833 89.7144H8.1025C7.48207 89.7144 6.97913 89.2115 6.97913 88.5911C6.97913 87.9708 7.48207 87.4678 8.1025 87.4678H11.3833C12.0038 87.4678 12.5067 87.9707 12.5067 88.5911C12.5067 89.2116 12.0038 89.7144 11.3833 89.7144Z" fill="black"/>
<path d="M16.9711 31.1822C16.9711 31.2754 16.9528 31.3676 16.9171 31.4537C16.8815 31.5398 16.8292 31.618 16.7633 31.6839C16.6974 31.7498 16.6192 31.802 16.5331 31.8376C16.447 31.8733 16.3548 31.8916 16.2616 31.8915C16.1684 31.8915 16.0762 31.8732 15.9901 31.8375C15.9041 31.8019 15.8259 31.7497 15.76 31.6838C15.6942 31.6179 15.6419 31.5397 15.6063 31.4537C15.5707 31.3676 15.5523 31.2753 15.5524 31.1822C15.5524 30.9941 15.6272 30.8137 15.7602 30.6807C15.8932 30.5477 16.0735 30.4729 16.2616 30.4728C16.4497 30.4728 16.6302 30.5476 16.7632 30.6806C16.8962 30.8136 16.971 30.9941 16.9711 31.1822Z" fill="#FED62C"/>
<path d="M33.2009 19.0935C32.6033 19.0935 32.1171 18.6073 32.1171 18.0097C32.1171 17.412 32.6033 16.9258 33.2009 16.9258C33.7986 16.9258 34.2848 17.412 34.2848 18.0097C34.2847 18.6073 33.7986 19.0935 33.2009 19.0935ZM33.2009 17.6748C33.1121 17.6749 33.027 17.7102 32.9642 17.773C32.9014 17.8358 32.8661 17.921 32.866 18.0098C32.8661 18.0986 32.9014 18.1837 32.9642 18.2465C33.027 18.3093 33.1121 18.3446 33.2009 18.3447C33.2898 18.3446 33.3749 18.3093 33.4377 18.2465C33.5005 18.1837 33.5358 18.0986 33.5359 18.0098C33.5358 17.921 33.5005 17.8358 33.4377 17.773C33.3749 17.7102 33.2898 17.6749 33.2009 17.6748Z" fill="#2BA9FC"/>
<path d="M81.1537 35.9981C81.1537 36.5549 80.7022 37.0066 80.1449 37.0066C79.5883 37.0066 79.1371 36.5548 79.1371 35.9981C79.1371 35.4411 79.5883 34.9901 80.1449 34.9901C80.7022 34.9901 81.1537 35.4412 81.1537 35.9981ZM82.0174 60.3053C82.0173 60.5245 81.9302 60.7347 81.7752 60.8897C81.6202 61.0447 81.41 61.1317 81.1908 61.1317C80.9716 61.1317 80.7613 61.0446 80.6064 60.8895C80.4514 60.7345 80.3643 60.5243 80.3644 60.3051C80.3644 60.0859 80.4515 59.8757 80.6065 59.7207C80.6833 59.6439 80.7744 59.5831 80.8747 59.5415C80.9749 59.5 81.0824 59.4787 81.191 59.4787C81.2995 59.4787 81.407 59.5001 81.5072 59.5416C81.6075 59.5832 81.6986 59.6441 81.7754 59.7208C81.8521 59.7976 81.913 59.8887 81.9545 59.989C81.996 60.0893 82.0174 60.1967 82.0174 60.3053Z" fill="#FD5C1E"/>
<path d="M91.4634 30.4728C91.4634 30.8647 91.1464 31.1822 90.7545 31.1822C90.3625 31.1822 90.045 30.8648 90.045 30.4728C90.0473 30.2861 90.123 30.1079 90.2557 29.9767C90.3885 29.8455 90.5676 29.772 90.7542 29.772C90.9409 29.772 91.12 29.8455 91.2527 29.9767C91.3855 30.1079 91.4612 30.2861 91.4634 30.4728Z" fill="#FED62C"/>
<path d="M9.10821 26.6874C7.55628 26.6874 6.29382 25.4249 6.29382 23.8732C6.29382 22.3217 7.55638 21.0596 9.10821 21.0596C10.66 21.0596 11.9226 22.3217 11.9226 23.8732C11.9226 25.4249 10.6601 26.6874 9.10821 26.6874ZM9.10821 21.8084C7.96924 21.8084 7.04264 22.7346 7.04264 23.8731C7.04264 25.0118 7.96924 25.9384 9.10821 25.9384C10.2472 25.9384 11.1738 25.0118 11.1738 23.8731C11.1738 22.7347 10.2472 21.8084 9.10821 21.8084ZM90.4225 55.2556C88.7885 55.2556 87.4591 53.9266 87.4591 52.293C87.4591 50.6597 88.7885 49.3308 90.4225 49.3308C92.056 49.3308 93.3852 50.6597 93.3852 52.293C93.3852 53.9266 92.056 55.2556 90.4225 55.2556ZM90.4225 50.0798C89.2014 50.0798 88.2081 51.0727 88.2081 52.2931C88.2081 53.5136 89.2014 54.5068 90.4225 54.5068C91.6431 54.5068 92.6363 53.5136 92.6363 52.2931C92.6363 51.0727 91.6431 50.0798 90.4225 50.0798Z" fill="#2BA9FC"/>
<path d="M13.8218 41.4889C12.2699 41.4889 11.0073 40.2266 11.0073 38.6748C11.0073 37.1229 12.27 35.8605 13.8218 35.8605C15.3735 35.8605 16.6361 37.123 16.6361 38.6748C16.6361 40.2265 15.3735 41.4889 13.8218 41.4889ZM13.8218 36.6093C12.6827 36.6093 11.7561 37.5358 11.7561 38.6747C11.7561 39.8134 12.6827 40.7399 13.8218 40.7399C14.9608 40.7399 15.8872 39.8134 15.8872 38.6747C15.8872 37.5358 14.9608 36.6093 13.8218 36.6093Z" fill="#FDD72C"/>
<path d="M40.635 11.8488C40.5534 11.8489 40.4725 11.8328 40.397 11.8016C40.3215 11.7704 40.253 11.7246 40.1952 11.6668C40.1374 11.6091 40.0916 11.5406 40.0603 11.4651C40.029 11.3897 40.0129 11.3088 40.0129 11.2271V10.6053C40.013 10.5162 39.9955 10.428 39.9615 10.3458C39.9274 10.2635 39.8775 10.1887 39.8146 10.1257C39.7516 10.0628 39.6769 10.0128 39.5946 9.97875C39.5123 9.9447 39.4241 9.92719 39.3351 9.92725C39.246 9.92723 39.1579 9.94476 39.0756 9.97883C38.9933 10.0129 38.9186 10.0628 38.8556 10.1258C38.7927 10.1888 38.7427 10.2635 38.7086 10.3458C38.6746 10.4281 38.657 10.5162 38.6571 10.6053V11.2271C38.6571 11.3087 38.641 11.3896 38.6098 11.465C38.5786 11.5404 38.5328 11.609 38.4751 11.6667C38.4174 11.7245 38.3488 11.7703 38.2734 11.8015C38.198 11.8327 38.1172 11.8488 38.0355 11.8488H37.4143C37.3243 11.8473 37.2349 11.8637 37.1513 11.897C37.0677 11.9304 36.9916 11.9801 36.9274 12.0432C36.8632 12.1063 36.8123 12.1815 36.7775 12.2645C36.7427 12.3475 36.7247 12.4366 36.7247 12.5267C36.7247 12.6167 36.7427 12.7058 36.7775 12.7888C36.8123 12.8718 36.8632 12.947 36.9274 13.0101C36.9916 13.0732 37.0677 13.1229 37.1513 13.1563C37.2349 13.1896 37.3243 13.206 37.4143 13.2045H38.0355C38.1172 13.2045 38.1981 13.2206 38.2735 13.2519C38.3489 13.2832 38.4175 13.329 38.4752 13.3868C38.5329 13.4446 38.5787 13.5131 38.6099 13.5886C38.6411 13.6641 38.6571 13.7449 38.6571 13.8266V14.4479C38.657 14.537 38.6745 14.6252 38.7086 14.7075C38.7427 14.7897 38.7926 14.8645 38.8556 14.9275C38.9185 14.9904 38.9933 15.0404 39.0756 15.0744C39.1579 15.1085 39.246 15.126 39.3351 15.126C39.4241 15.126 39.5123 15.1085 39.5946 15.0745C39.6769 15.0404 39.7516 14.9905 39.8146 14.9275C39.8776 14.8645 39.9275 14.7898 39.9615 14.7075C39.9955 14.6252 40.013 14.537 40.0129 14.4479V13.8266C40.0129 13.7449 40.029 13.664 40.0602 13.5885C40.0915 13.513 40.1373 13.4444 40.1951 13.3866C40.2528 13.3289 40.3214 13.283 40.3969 13.2518C40.4724 13.2205 40.5533 13.2045 40.635 13.2045H41.2565C41.4363 13.2045 41.6087 13.1331 41.7359 13.006C41.863 12.8789 41.9345 12.7065 41.9345 12.5267C41.9345 12.3469 41.863 12.1744 41.7359 12.0473C41.6087 11.9202 41.4363 11.8488 41.2565 11.8488H40.635Z" fill="#FD5C1E"/>
<path d="M83.878 19.9225C83.8117 19.9225 83.746 19.9094 83.6848 19.884C83.6235 19.8587 83.5679 19.8215 83.521 19.7746C83.4741 19.7276 83.437 19.672 83.4116 19.6107C83.3863 19.5494 83.3733 19.4837 83.3734 19.4174V18.9125C83.3706 18.7683 83.3114 18.631 83.2085 18.53C83.1056 18.429 82.9671 18.3724 82.8229 18.3724C82.6787 18.3724 82.5403 18.429 82.4374 18.53C82.3344 18.631 82.2752 18.7683 82.2725 18.9125V19.4174C82.2726 19.4837 82.2596 19.5494 82.2342 19.6107C82.2089 19.672 82.1717 19.7276 82.1249 19.7746C82.078 19.8215 82.0223 19.8587 81.9611 19.884C81.8998 19.9094 81.8342 19.9225 81.7678 19.9225H81.2632C81.1909 19.9224 81.1194 19.9366 81.0526 19.9643C80.9859 19.9919 80.9252 20.0324 80.8741 20.0835C80.823 20.1346 80.7824 20.1952 80.7547 20.262C80.7271 20.3287 80.7128 20.4002 80.7128 20.4725C80.7128 20.6185 80.7708 20.7586 80.874 20.8618C80.9772 20.9651 81.1172 21.0232 81.2632 21.0232H81.7678C81.8341 21.0232 81.8997 21.0362 81.9609 21.0616C82.0221 21.0869 82.0777 21.124 82.1246 21.1709C82.1715 21.2177 82.2086 21.2733 82.234 21.3345C82.2594 21.3957 82.2725 21.4612 82.2725 21.5275V22.0324C82.2725 22.1047 82.2867 22.1763 82.3144 22.2431C82.3421 22.3099 82.3827 22.3706 82.4339 22.4217C82.4851 22.4728 82.5458 22.5133 82.6127 22.5409C82.6795 22.5684 82.7511 22.5826 82.8234 22.5825C83.1274 22.5825 83.3734 22.3366 83.3734 22.0324V21.5275C83.3734 21.4612 83.3865 21.3957 83.4118 21.3345C83.4372 21.2733 83.4744 21.2177 83.5213 21.1709C83.5681 21.124 83.6237 21.0869 83.685 21.0616C83.7462 21.0362 83.8118 21.0232 83.878 21.0232H84.3824C84.4547 21.0233 84.5263 21.009 84.5932 20.9814C84.66 20.9537 84.7207 20.9131 84.7718 20.862C84.823 20.8109 84.8636 20.7501 84.8912 20.6833C84.9189 20.6165 84.9331 20.5448 84.9331 20.4725C84.9331 20.4002 84.9189 20.3286 84.8912 20.2618C84.8635 20.1951 84.8229 20.1344 84.7718 20.0833C84.7206 20.0322 84.6599 19.9917 84.5931 19.9641C84.5263 19.9365 84.4547 19.9224 84.3824 19.9225H83.878Z" fill="#2BA9FC"/>
<path d="M78.8754 47.1552C78.793 47.1553 78.7113 47.1392 78.6351 47.1077C78.5589 47.0762 78.4896 47.0299 78.4313 46.9716C78.373 46.9133 78.3267 46.8441 78.2952 46.7679C78.2636 46.6917 78.2474 46.6101 78.2475 46.5276V45.9C78.2453 45.7199 78.1722 45.5478 78.0441 45.4212C77.9159 45.2946 77.7431 45.2236 77.5629 45.2236C77.3828 45.2236 77.2099 45.2946 77.0817 45.4212C76.9536 45.5478 76.8805 45.7199 76.8783 45.9V46.5276C76.8784 46.61 76.8622 46.6917 76.8306 46.7679C76.7991 46.844 76.7529 46.9132 76.6946 46.9715C76.6363 47.0298 76.567 47.0761 76.4909 47.1076C76.4147 47.1391 76.3331 47.1553 76.2506 47.1552H75.6236C75.2452 47.1552 74.9384 47.4621 74.9384 47.8397C74.9384 48.2177 75.2453 48.524 75.6236 48.524H76.2506C76.3331 48.524 76.4148 48.5403 76.491 48.5719C76.5672 48.6035 76.6364 48.6498 76.6947 48.7081C76.753 48.7665 76.7992 48.8358 76.8307 48.912C76.8622 48.9882 76.8784 49.0699 76.8783 49.1524V49.78C76.8784 49.9615 76.9505 50.1355 77.0789 50.2639C77.2072 50.3922 77.3812 50.4644 77.5627 50.4645C77.6526 50.4645 77.7416 50.4469 77.8247 50.4125C77.9078 50.3781 77.9833 50.3277 78.0469 50.2641C78.1105 50.2006 78.1609 50.1251 78.1953 50.0421C78.2298 49.959 78.2475 49.87 78.2475 49.78V49.1524C78.2474 49.0699 78.2636 48.9882 78.2951 48.912C78.3267 48.8357 78.3729 48.7664 78.4312 48.7081C78.4895 48.6497 78.5588 48.6034 78.635 48.5718C78.7112 48.5402 78.7929 48.524 78.8754 48.524H79.5024C79.5924 48.524 79.6814 48.5064 79.7645 48.472C79.8476 48.4377 79.9231 48.3873 79.9867 48.3237C80.0503 48.2602 80.1008 48.1847 80.1352 48.1017C80.1697 48.0186 80.1874 47.9296 80.1875 47.8397C80.1875 47.4621 79.8805 47.1552 79.5024 47.1552H78.8754Z" fill="#FDD62C"/>
<path d="M21.6905 11.2172C21.6282 11.2171 21.5665 11.2294 21.509 11.2533C21.4514 11.2771 21.3991 11.3121 21.3551 11.3561C21.311 11.4002 21.2761 11.4525 21.2523 11.5101C21.2285 11.5677 21.2162 11.6294 21.2163 11.6917L21.216 13.7771C21.216 14.0386 21.4286 14.2499 21.6906 14.2516C21.9518 14.2516 22.1641 14.0386 22.1648 13.7771V11.6917C22.1648 11.6294 22.1526 11.5677 22.1287 11.5101C22.1049 11.4526 22.07 11.4003 22.026 11.3562C21.9819 11.3121 21.9296 11.2772 21.8721 11.2533C21.8145 11.2295 21.7528 11.2172 21.6905 11.2172ZM21.6904 18.4234C21.6282 18.4233 21.5665 18.4355 21.509 18.4593C21.4514 18.4831 21.3991 18.518 21.3551 18.5621C21.311 18.6061 21.2761 18.6583 21.2522 18.7159C21.2284 18.7734 21.2161 18.835 21.2161 18.8973L21.2164 20.9831C21.2189 21.1072 21.27 21.2253 21.3587 21.3122C21.4473 21.399 21.5665 21.4477 21.6906 21.4477C21.8148 21.4477 21.9339 21.399 22.0226 21.3122C22.1113 21.2253 22.1623 21.1072 22.1649 20.9831V18.8973C22.1647 18.7716 22.1146 18.6511 22.0257 18.5622C21.9367 18.4733 21.8162 18.4234 21.6904 18.4234ZM19.5452 14.863C19.7302 15.0478 20.0303 15.0471 20.2157 14.8617C20.4005 14.6774 20.4005 14.3774 20.2157 14.1913L18.7404 12.7169C18.6965 12.6727 18.6442 12.6377 18.5867 12.6138C18.5292 12.5899 18.4676 12.5776 18.4053 12.5776C18.343 12.5776 18.2814 12.5899 18.2239 12.6138C18.1664 12.6377 18.1142 12.6727 18.0702 12.7169C17.8851 12.9019 17.8845 13.2025 18.0702 13.3868L19.5452 14.863ZM23.8356 17.8117C23.7916 17.7677 23.7393 17.7329 23.6818 17.7091C23.6243 17.6853 23.5627 17.6731 23.5004 17.6732C23.4382 17.6732 23.3766 17.6856 23.3191 17.7095C23.2617 17.7334 23.2095 17.7683 23.1656 17.8124C23.1215 17.8564 23.0866 17.9087 23.0627 17.9662C23.0389 18.0238 23.0266 18.0854 23.0266 18.1477C23.0266 18.21 23.0389 18.2716 23.0627 18.3291C23.0866 18.3867 23.1215 18.4389 23.1656 18.4829L24.6407 19.9585C24.7298 20.047 24.8504 20.0967 24.976 20.0967C25.1016 20.0967 25.2221 20.047 25.3112 19.9585C25.4961 19.7727 25.4966 19.4715 25.3112 19.2873L23.8356 17.8117ZM19.6047 16.3371C19.6045 16.2113 19.5543 16.0908 19.4653 16.002C19.3763 15.9132 19.2557 15.8633 19.1299 15.8633H17.0446C16.9823 15.8633 16.9207 15.8755 16.8631 15.8993C16.8056 15.9231 16.7533 15.958 16.7093 16.002C16.6653 16.046 16.6303 16.0982 16.6065 16.1557C16.5826 16.2132 16.5703 16.2748 16.5703 16.3371C16.5704 16.4629 16.6204 16.5835 16.7093 16.6725C16.7982 16.7614 16.9188 16.8115 17.0446 16.8116H19.1304C19.3922 16.8116 19.6042 16.5987 19.6047 16.3371ZM26.3367 15.8633H24.2504C24.1881 15.8634 24.1265 15.8757 24.069 15.8995C24.0115 15.9233 23.9593 15.9583 23.9153 16.0023C23.8713 16.0463 23.8364 16.0986 23.8126 16.1561C23.7888 16.2136 23.7766 16.2753 23.7766 16.3375C23.7765 16.3998 23.7887 16.4615 23.8125 16.5191C23.8364 16.5766 23.8713 16.6289 23.9153 16.673C23.9594 16.717 24.0117 16.7519 24.0693 16.7757C24.1269 16.7995 24.1886 16.8117 24.2509 16.8116H26.3367C26.5984 16.8116 26.8107 16.5987 26.8107 16.3371C26.8107 16.2748 26.7985 16.2132 26.7747 16.1557C26.7509 16.0982 26.716 16.0459 26.672 16.0019C26.6279 15.9579 26.5757 15.923 26.5181 15.8992C26.4606 15.8755 26.399 15.8633 26.3367 15.8633ZM19.5452 17.8125L18.0702 19.2874C17.9813 19.3764 17.9314 19.4971 17.9314 19.623C17.9314 19.7488 17.9813 19.8695 18.0702 19.9586C18.2552 20.1429 18.5555 20.1436 18.7404 19.9586L20.2157 18.483C20.4009 18.2982 20.4005 17.9974 20.2157 17.8118C20.1717 17.7678 20.1194 17.7329 20.0618 17.7091C20.0042 17.6853 19.9426 17.6731 19.8803 17.6732C19.818 17.6733 19.7564 17.6856 19.6989 17.7095C19.6414 17.7334 19.5891 17.7684 19.5452 17.8125ZM23.836 14.863L25.3111 13.3868C25.3999 13.298 25.4498 13.1775 25.4498 13.0519C25.4498 12.9262 25.3999 12.8058 25.3111 12.7169C25.2672 12.6727 25.2149 12.6377 25.1574 12.6138C25.0999 12.5898 25.0382 12.5775 24.9759 12.5775C24.9136 12.5775 24.8519 12.5898 24.7943 12.6138C24.7368 12.6377 24.6846 12.6727 24.6406 12.7169L23.1655 14.1916C23.0766 14.2807 23.0267 14.4014 23.0267 14.5273C23.0267 14.6531 23.0766 14.7739 23.1655 14.863C23.2544 14.9518 23.375 15.0017 23.5007 15.0017C23.6265 15.0017 23.747 14.9518 23.836 14.863Z" fill="#FED62C"/>
<path d="M64.5657 53.7492H54.7261L57.8901 41.3632C58.013 40.5874 57.3915 39.9582 56.502 39.9582H49.5348C49.5375 39.9409 49.5447 39.925 49.5469 39.9077L51.2107 23.2206C51.3097 22.4418 50.9316 22.3013 50.3666 22.9067L33.4984 40.2223C32.9336 40.8271 33.1969 41.3182 34.0862 41.3182H43.9029C43.8997 41.3333 43.8926 41.348 43.8905 41.3632L40.7123 53.8046C40.5893 54.5804 41.2108 55.2094 42.1001 55.2094H49.099L47.4414 71.8468C47.3428 72.6254 47.7205 72.7661 48.2853 72.1606L65.1536 54.8458C65.7183 54.2405 65.455 53.7492 64.5657 53.7492Z" fill="#FDD72C"/>
<path d="M64.5657 53.7492H54.7261L57.89 41.3632C58.0129 40.5874 57.3915 39.9582 56.502 39.9582H49.5348C49.5375 39.9409 49.5447 39.925 49.5469 39.9077L51.2107 23.2206C51.3097 22.4418 50.9315 22.3013 50.3666 22.9067L48.8192 24.4951L46.7505 40.4992C46.7482 40.5165 46.7412 40.5325 46.7383 40.5498H53.706C54.5953 40.5498 55.2169 41.1788 55.0938 41.9547L51.93 54.3408H61.7692C62.6585 54.3408 62.9221 54.8312 62.3572 55.4366L47.6503 69.7505L47.4414 71.8469C47.3427 72.6255 47.7205 72.7662 48.2852 72.1607L65.1535 54.8459C65.7183 54.2405 65.455 53.7492 64.5657 53.7492Z" fill="#ED8A23"/>
<path d="M44.3371 78.2222C43.8215 78.2222 43.3022 78.102 42.8651 77.897C41.9636 77.4743 41.469 76.6942 41.5744 75.8609L43.4781 58.407H38.785C37.7572 58.407 36.7359 57.9586 36.1199 57.2371C35.6567 56.6947 35.4592 56.0341 35.5634 55.3771L35.5818 55.2859L38.3054 44.1777C37.1769 44.1725 35.5257 44.1672 33.9969 44.1622C32.5649 44.1577 31.1329 44.1531 30.0579 44.1485C29.4391 44.1458 28.9851 44.1439 28.6456 44.1345H28.2666V44.1177C27.8348 44.088 27.6794 44.0257 27.5418 43.8893C27.119 43.6806 26.7906 43.3457 26.6019 42.9114C26.5607 42.8165 26.5271 42.7184 26.5016 42.6182L25.9094 41.8879H26.4561C26.5135 41.4125 26.7364 40.9402 27.1104 40.5399L37.5642 29.2917C37.9868 28.8377 38.6974 28.8115 39.1518 29.2337C39.6062 29.656 39.6323 30.3668 39.2099 30.8213L28.9169 41.896C29.9357 41.9026 32.0679 41.9094 34.0041 41.9156C35.4361 41.9201 36.8679 41.9247 37.9429 41.9294C40.2469 41.9392 40.2469 41.9392 40.5867 42.3347L40.963 42.7728L37.7848 55.7356C37.837 55.8524 38.2634 56.1602 38.785 56.1602H45.9831L43.8329 75.8723C44.0411 75.9628 44.3976 76.0066 44.5479 75.9462L44.5594 75.9352L67.5501 53.771H54.607L58.4833 39.996C58.5072 39.8052 58.4867 39.6901 58.4711 39.6447C58.4414 39.6351 58.3785 39.622 58.2775 39.622H49.1788L49.3926 38.3171C49.4033 38.2426 49.7703 35.6952 49.8036 35.4606L51.7392 17.3868C51.6641 17.4395 51.5961 17.4958 51.5423 17.5534L47.8527 21.5224C47.4302 21.9771 46.7194 22.0028 46.2651 21.5803C45.8107 21.1579 45.7847 20.4471 46.2072 19.9927L49.8979 16.0224C50.6064 15.2624 52.1597 14.4802 53.2375 14.9856C53.8489 15.2722 54.1726 15.8929 54.0822 16.6057L52.0357 35.7184C52.0316 35.7517 51.9101 36.5964 51.7982 37.3752H58.2776C59.2832 37.3752 59.866 37.8108 60.1779 38.1761C60.6513 38.7303 60.8346 39.5221 60.6942 40.4053L60.6662 40.5333L57.5734 51.5243H68.2096C69.6542 51.5243 70.1462 52.2983 70.2908 52.631C70.4297 52.9511 70.6557 53.7997 69.7542 54.7648L69.713 54.8065L46.1357 77.5362C45.6684 78.0196 45.006 78.2222 44.3371 78.2222Z" fill="black"/>
<path d="M42.4566 26.8011C42.1826 26.8011 41.908 26.7016 41.6919 26.5003C41.2374 26.0778 41.2118 25.3671 41.6344 24.9127L42.3167 24.1791C42.7389 23.7247 43.4505 23.6989 43.9042 24.1216C44.3587 24.5441 44.3843 25.2548 43.9617 25.7091L43.2794 26.4428C43.1743 26.556 43.047 26.6463 42.9054 26.7079C42.7638 26.7696 42.611 26.8013 42.4566 26.8011Z" fill="black"/>
</svg>
