<?xml version="1.0" encoding="UTF-8"?>
<svg id="Layer_1" data-name="Layer 1" xmlns="http://www.w3.org/2000/svg" viewBox="0 0 200 200">
  <defs>
    <style>
      .cls-1 {
        fill: #507abd;
      }

      .cls-1, .cls-2, .cls-3 {
        stroke-width: 0px;
      }

      .cls-4 {
        stroke: #d77827;
      }

      .cls-4, .cls-5, .cls-6 {
        fill: none;
        stroke-miterlimit: 10;
      }

      .cls-5 {
        stroke: #231f20;
        stroke-width: 4px;
      }

      .cls-2 {
        fill: #facd18;
      }

      .cls-6 {
        stroke: #507abd;
      }

      .cls-3 {
        fill: #d77827;
      }
    </style>
  </defs>
  <path class="cls-5" d="M111.72,19.22l-7.72,45.21c-.15.87.52,1.67,1.41,1.67h27.28c.9,0,1.58.82,1.4,1.71l-6.82,34.78c-.17.88.5,1.71,1.4,1.71h28.17c1.26,0,1.91,1.52,1.03,2.43l-58.01,59.76c-.93.96-2.56.23-2.45-1.11l3.87-49.55c.06-.8-.55-1.5-1.36-1.54l-17.73-.88c-.89-.04-1.52-.88-1.32-1.75l7.23-31.72c.2-.88-.46-1.73-1.37-1.75l-32.85-.67c-1.26-.03-1.87-1.54-.99-2.44l56.4-57.11c.98-1,2.66-.13,2.43,1.25Z"/>
  <path class="cls-3" d="M146.31,106.89h-23.89l6.15-33.19c.43-2.3-1.34-4.43-3.68-4.43h-24.85l6.03-33.33c.17-.96-.98-1.58-1.69-.9l-3.1,2.98c.1.19.15.41.1.66l-6.03,33.33h24.85c2.34,0,4.11,2.12,3.68,4.43l-6.15,33.19h23.89c1.17,0,1.79,1.4.99,2.26l-32.36,35c.51.6,1.48.73,2.11.06l34.94-37.79c.8-.86.19-2.26-.99-2.26Z"/>
  <path class="cls-2" d="M141.88,109.33h-23.89l6.15-33.19c.43-2.3-1.34-4.43-3.68-4.43h-24.85l6.03-33.33c.04-.25,0-.47-.1-.66l-34.98,33.63c-1.18,1.13-.41,3.12,1.22,3.17l28.73.48-5.21,28.73c-.32,1.76,1.02,3.39,2.81,3.42l16.84.27-.76,38.23c0,.37.13.68.34.93l32.36-35c.8-.86.19-2.26-.99-2.26Z"/>
  <polygon class="cls-2" points="24.54 32.53 19.98 27.21 13.01 27.95 16.67 21.97 13.81 15.57 20.63 17.19 25.83 12.5 26.39 19.48 32.46 22.98 25.99 25.67 24.54 32.53"/>
  <polygon class="cls-3" points="51.01 133.94 50.35 139.88 54.95 143.94 49 144.99 46.64 150.45 43.62 145.15 37.56 144.46 41.66 140.15 40.27 134.26 45.81 136.89 51.01 133.94"/>
  <polygon class="cls-1" points="158.33 47.54 154.87 46.35 151.93 48.52 152 44.87 149.03 42.74 152.52 41.67 153.63 38.19 155.72 41.18 159.37 41.16 157.17 44.07 158.33 47.54"/>
  <circle class="cls-4" cx="20.01" cy="93.04" r="6.99"/>
  <circle class="cls-4" cx="150.18" cy="146.53" r="4.34"/>
  <circle class="cls-6" cx="138.33" cy="28.04" r="10.7"/>
  <circle class="cls-1" cx="163.78" cy="70.39" r="1.68"/>
  <circle class="cls-1" cx="30.74" cy="51.65" r="5.81"/>
</svg>