<?xml version="1.0" encoding="UTF-8"?>
<svg id="Layer_1" data-name="Layer 1" xmlns="http://www.w3.org/2000/svg" viewBox="0 0 200 200">
  <defs>
    <style>
      .cls-1 {
        fill: #507abd;
      }

      .cls-1, .cls-2 {
        stroke-width: 0px;
      }

      .cls-3 {
        fill: #fec552;
      }

      .cls-3, .cls-4, .cls-5 {
        stroke: #231f20;
      }

      .cls-3, .cls-5 {
        stroke-miterlimit: 10;
        stroke-width: 4px;
      }

      .cls-2 {
        fill: #231f20;
      }

      .cls-4 {
        fill: #f58b79;
        stroke-width: 3px;
      }

      .cls-5 {
        fill: none;
      }
    </style>
  </defs>
  <polygon class="cls-1" points="152.65 152.94 152.65 29.58 142.07 29.58 142.07 152.94 58.69 152.94 58.69 29.58 48.11 29.58 48.11 152.94 48.11 168.29 48.11 170.48 152.76 170.48 152.76 152.94 152.65 152.94"/>
  <g>
    <rect class="cls-5" x="46.32" y="28.39" width="107.35" height="143.23" rx="6.87" ry="6.87"/>
    <rect class="cls-5" x="58.66" y="28.85" width="82.69" height="124.72" rx="2.48" ry="2.48"/>
  </g>
  <g>
    <path class="cls-3" d="M123.27,17.42h-13.9c0-4.98-4.04-9.02-9.02-9.02s-9.02,4.04-9.02,9.02h-14.6c-3.29,0-5.96,2.67-5.96,5.96v12.4c0,.66.53,1.19,1.19,1.19h56.06c.66,0,1.19-.53,1.19-1.19v-12.4c0-3.29-2.67-5.96-5.96-5.96Z"/>
    <rect class="cls-2" x="98.37" y="13.63" width="4.13" height="7.27" rx="2.06" ry="2.06"/>
  </g>
  <g>
    <rect class="cls-2" x="73.9" y="129.58" width="45.55" height="3.94" rx="1.97" ry="1.97"/>
    <rect class="cls-2" x="73.9" y="138.26" width="26.1" height="3.94" rx="1.97" ry="1.97"/>
  </g>
  <g>
    <rect class="cls-2" x="115.77" y="54.03" width="17.82" height="3.94" rx="1.97" ry="1.97" transform="translate(180.68 -68.68) rotate(90)"/>
    <rect class="cls-2" x="115.77" y="54.03" width="17.82" height="3.94" rx="1.97" ry="1.97" transform="translate(249.35 112) rotate(180)"/>
  </g>
  <path class="cls-4" d="M123.69,117.28h.37c3.03,0,5.16-2.84,4.19-5.59l-21.58-61.01c-.61-1.72-2.29-2.87-4.19-2.87h-4.08c-1.9,0-3.58,1.16-4.19,2.87l-21.58,61.01c-.97,2.74,1.16,5.59,4.19,5.59h0c1.93,0,3.64-1.2,4.22-2.96l5.03-15.25c.58-1.76,2.29-2.96,4.22-2.96h19.99c1.94,0,3.65,1.2,4.22,2.97l4.97,15.22c.58,1.77,2.29,2.97,4.22,2.97ZM92.14,89.06c-1.37,0-2.35-1.28-1.94-2.53l2.66-8.06c2.61-7.77,4.94-15.36,7.19-23.41h.44c2.33,8.02,4.66,15.64,7.27,23.41l2.63,8.06c.41,1.25-.57,2.52-1.94,2.52h-16.32Z"/>
</svg>