<?xml version="1.0" encoding="UTF-8"?>
<svg id="Layer_1" data-name="Layer 1" xmlns="http://www.w3.org/2000/svg" viewBox="0 0 200 200">
  <defs>
    <style>
      .cls-1 {
        fill: #507abd;
      }

      .cls-1, .cls-2, .cls-3, .cls-4 {
        stroke-width: 0px;
      }

      .cls-5 {
        stroke-width: 4.04px;
      }

      .cls-5, .cls-6, .cls-7, .cls-8, .cls-9, .cls-10, .cls-11, .cls-12, .cls-13 {
        stroke-miterlimit: 10;
      }

      .cls-5, .cls-6, .cls-7, .cls-9, .cls-10, .cls-11, .cls-12, .cls-13 {
        stroke: #507abd;
      }

      .cls-5, .cls-6, .cls-3, .cls-9, .cls-10, .cls-11, .cls-13 {
        fill: #fff;
      }

      .cls-2, .cls-12 {
        fill: none;
      }

      .cls-6 {
        stroke-width: 3.94px;
      }

      .cls-7 {
        fill: #facd18;
      }

      .cls-7, .cls-12, .cls-13 {
        stroke-width: 4px;
      }

      .cls-8 {
        stroke: #ee736c;
      }

      .cls-8, .cls-10 {
        stroke-width: 3.78px;
      }

      .cls-8, .cls-4 {
        fill: #d77827;
      }

      .cls-9 {
        stroke-width: 3.9px;
      }

      .cls-11 {
        stroke-width: 4.04px;
      }
    </style>
  </defs>
  <rect class="cls-12" x="41.35" y="24.26" width="117.42" height="164.65"/>
  <rect class="cls-8" x="45.23" y="28.04" width="109.71" height="157.09"/>
  <rect class="cls-4" x="49.06" y="31.9" width="102.13" height="149.68"/>
  <rect class="cls-7" x="76.68" y="16.71" width="50.71" height="15.1"/>
  <path class="cls-2" d="M102.03,7.18c-6.29,0-11.55,4.45-12.8,10.37l22.67-5.85c-2.4-2.77-5.93-4.52-9.88-4.52Z"/>
  <path class="cls-1" d="M102.03,7.18c3.95,0,7.48,1.76,9.88,4.52l4.27-1.1c-3.09-4.51-8.27-7.47-14.14-7.47-8.92,0-16.23,6.81-17.05,15.51l4.25-1.1c1.25-5.92,6.5-10.37,12.8-10.37Z"/>
  <g>
    <path class="cls-3" d="M56.29,65.9l2.96-3.56c1.39,1.12,3.14,1.9,4.58,1.9,1.57,0,2.23-.51,2.23-1.39,0-.94-1-1.24-2.65-1.9l-2.44-1.03c-2.11-.84-3.95-2.62-3.95-5.46,0-3.35,3.02-6.09,7.3-6.09,2.23,0,4.71.84,6.52,2.62l-2.59,3.26c-1.33-.94-2.47-1.42-3.92-1.42-1.27,0-2.05.45-2.05,1.33,0,.94,1.12,1.27,2.9,1.96l2.38.94c2.44.96,3.83,2.65,3.83,5.37,0,3.32-2.78,6.28-7.66,6.28-2.47,0-5.31-.91-7.42-2.81Z"/>
    <path class="cls-3" d="M73.66,58.69c0-6.58,4.53-10.32,9.47-10.32,2.59,0,4.71,1.21,6.09,2.59l-2.71,3.32c-.97-.84-1.93-1.45-3.26-1.45-2.29,0-4.28,2.11-4.28,5.67s1.69,5.73,4.22,5.73c1.51,0,2.71-.78,3.56-1.69l2.71,3.26c-1.66,1.93-3.92,2.9-6.46,2.9-5.01,0-9.35-3.32-9.35-10.02Z"/>
    <path class="cls-3" d="M90.13,58.45c0-6.46,3.68-10.08,9.11-10.08s9.11,3.65,9.11,10.08-3.68,10.26-9.11,10.26-9.11-3.8-9.11-10.26ZM103.04,58.45c0-3.56-1.45-5.61-3.8-5.61s-3.8,2.05-3.8,5.61,1.45,5.79,3.8,5.79,3.8-2.23,3.8-5.79Z"/>
    <path class="cls-3" d="M111.85,48.74h7.42c4.22,0,7.84,1.45,7.84,6.33s-3.62,6.7-7.84,6.7h-2.23v6.58h-5.19v-19.61ZM118.91,57.67c2.05,0,3.14-.91,3.14-2.59s-1.09-2.23-3.14-2.23h-1.87v4.83h1.87ZM118.34,60.41l3.5-3.44,6.37,11.37h-5.79l-4.07-7.93Z"/>
    <path class="cls-3" d="M130.86,48.74h12.67v4.34h-7.48v3.08h6.4v4.34h-6.4v3.5h7.78v4.34h-12.97v-19.61Z"/>
  </g>
  <rect class="cls-10" x="56.28" y="84.87" width="87.54" height="75.1"/>
  <rect class="cls-11" x="56.87" y="85.46" width="18.58" height="25.06"/>
  <rect class="cls-9" x="75.45" y="134.9" width="40.48" height="23.89"/>
  <rect class="cls-9" x="75.45" y="110.48" width="40.48" height="23.89"/>
  <rect class="cls-9" x="75.45" y="86.05" width="40.48" height="23.89"/>
  <rect class="cls-5" x="56.87" y="109.94" width="18.58" height="24.97"/>
  <rect class="cls-6" x="56.87" y="134.98" width="18.58" height="23.81"/>
  <rect class="cls-13" x="115.93" y="85.76" width="27.9" height="25.06"/>
  <rect class="cls-13" x="115.93" y="110.23" width="27.9" height="24.97"/>
  <rect class="cls-13" x="115.93" y="135.28" width="27.9" height="23.81"/>
</svg>